<?xml version="1.0" encoding="UTF-8" standalone="no"?>
<!-- Created with Inkscape (http://www.inkscape.org/) -->

<svg
   xmlns:dc="http://purl.org/dc/elements/1.1/"
   xmlns:cc="http://creativecommons.org/ns#"
   xmlns:rdf="http://www.w3.org/1999/02/22-rdf-syntax-ns#"
   xmlns:svg="http://www.w3.org/2000/svg"
   xmlns="http://www.w3.org/2000/svg"
   xmlns:sodipodi="http://sodipodi.sourceforge.net/DTD/sodipodi-0.dtd"
   xmlns:inkscape="http://www.inkscape.org/namespaces/inkscape"
   width="210mm"
   height="297mm"
   viewBox="0 0 210 297"
   version="1.1"
   id="svg8"
   inkscape:version="0.92.4 (f8dce91, 2019-08-02)"
   sodipodi:docname="cover.svg">
  <defs
     id="defs2" />
  <sodipodi:namedview
     id="base"
     pagecolor="#ffffff"
     bordercolor="#666666"
     borderopacity="1.0"
     inkscape:pageopacity="0.0"
     inkscape:pageshadow="2"
     inkscape:zoom="0.7"
     inkscape:cx="250.30116"
     inkscape:cy="670.71033"
     inkscape:document-units="mm"
     inkscape:current-layer="layer1"
     showgrid="false"
     inkscape:window-width="1366"
     inkscape:window-height="713"
     inkscape:window-x="0"
     inkscape:window-y="27"
     inkscape:window-maximized="1" />
  <metadata
     id="metadata5">
    <rdf:RDF>
      <cc:Work
         rdf:about="">
        <dc:format>image/svg+xml</dc:format>
        <dc:type
           rdf:resource="http://purl.org/dc/dcmitype/StillImage" />
        <dc:title></dc:title>
      </cc:Work>
    </rdf:RDF>
  </metadata>
  <g
     inkscape:label="Layer 1"
     inkscape:groupmode="layer"
     id="layer1">
    <path
       style="fill:#000000;stroke-width:0.26458335"
       d="M 99.175126,191.21294 C 95.315243,190.82059 91.930298,190.24583 88.978091,189.48151 62.302829,182.57531 42.686145,159.80013 39.765,132.3446 37.666863,112.62439 44.611547,93.005815 58.6889,78.885089 64.465691,73.090498 71.45037,68.248244 78.486681,65.15992 c 13.572477,-5.957127 28.471669,-7.290237 42.648869,-3.816017 23.51283,5.761989 42.15529,24.095724 48.16511,47.367527 2.33237,9.03166 2.77441,18.49975 1.28588,27.54224 -2.29585,13.94676 -8.96208,26.65349 -19.18961,36.57799 -11.19921,10.86739 -25.08313,17.13607 -40.97701,18.50141 -3.97776,0.3417 -7.02135,0.30918 -11.244794,-0.12013 z m 5.820834,-1.15942 v -0.764 l -3.71781,-0.1925 c -2.044794,-0.10587 -3.776085,-0.13421 -3.847315,-0.063 -0.0712,0.0712 0.18361,0.50166 0.566327,0.9565 l 0.695847,0.82697 h 3.151471 3.15148 z m 7.75942,-0.0959 0.83954,-0.85989 -1.85209,-0.0858 c -1.01864,-0.0472 -2.83435,-0.007 -4.03489,0.0899 l -2.18282,0.17571 v 0.77 0.77 h 3.19536 3.19535 z m -15.450805,-0.16685 c -0.60712,-0.82118 -0.59594,-0.81898 -6.331521,-1.24085 -2.220457,-0.16332 -2.240637,-0.15932 -1.592328,0.31529 0.675812,0.49475 5.708925,1.61063 7.487229,1.65998 l 1.00011,0.0277 z m 20.689865,0.0802 c 1.76748,-0.32482 2.57517,-0.60879 3.09683,-1.08881 l 0.70573,-0.64938 -1.05833,0.13752 c -0.58208,0.0756 -2.20739,0.21889 -3.6118,0.31834 -2.78019,0.19688 -2.70539,0.17083 -3.66424,1.2761 l -0.66146,0.76247 1.40108,-0.15841 c 0.77059,-0.0871 2.47708,-0.35614 3.79219,-0.59783 z m 6.05152,-1.46247 c 1.80884,-0.49536 1.95638,-0.84985 0.26459,-0.63571 -0.91567,0.11589 -1.65141,0.38138 -1.98438,0.71605 l -0.52917,0.53186 0.52917,-0.14307 c 0.29104,-0.0787 1.06495,-0.2898 1.71979,-0.46913 z m -36.115614,0.0277 c -0.08994,-0.14552 -0.424386,-0.26276 -0.74322,-0.26053 -0.471284,0.003 -0.505476,0.052 -0.182822,0.26053 0.521261,0.33686 1.134235,0.33686 0.926042,0 z m 17.065614,-2.7681 v -3.05273 l -2.05052,-0.0264 c -1.12779,-0.0145 -3.580134,-0.1038 -5.449655,-0.19843 -1.86953,-0.0946 -3.440755,-0.10443 -3.491611,-0.0217 -0.05085,0.0827 0.544917,1.47192 1.323935,3.08721 1.129576,2.34218 1.541946,2.95821 2.036396,3.04216 0.34101,0.0579 2.197578,0.13167 4.125725,0.16395 l 3.50573,0.0587 v -3.05274 z m 7.27604,2.80138 1.85209,-0.16557 1.25193,-2.51354 c 1.84356,-3.7014 1.93548,-3.55562 -2.11183,-3.3492 -1.85539,0.0946 -4.35571,0.17253 -5.55625,0.17312 l -2.18282,10e-4 v 3.0427 3.04271 l 2.4474,-0.0329 c 1.34607,-0.0181 3.28083,-0.10737 4.29948,-0.19844 z m -17.308672,-2.74526 c -0.695515,-1.49159 -1.331462,-2.90242 -1.413211,-3.13517 -0.116665,-0.33217 -0.850857,-0.49073 -3.413371,-0.73719 -1.795603,-0.17269 -4.186812,-0.44924 -5.313797,-0.61455 -1.126984,-0.1653 -2.121582,-0.22803 -2.210218,-0.1394 -0.231417,0.23142 2.515815,3.78693 4.174284,5.40243 l 1.407914,1.37144 2.513542,0.24571 c 1.382448,0.13514 3.189867,0.26213 4.016489,0.28221 l 1.502945,0.0365 z m 24.849302,2.16188 c 2.43191,-0.28181 2.55063,-0.32702 3.65568,-1.39194 1.35764,-1.30834 4.15335,-4.88921 3.96456,-5.07799 -0.12433,-0.12434 -8.37702,0.58513 -9.67076,0.83138 -0.32742,0.0623 -0.59589,0.25987 -0.5966,0.439 -7.9e-4,0.17913 -0.53648,1.51252 -1.19062,2.9631 -0.65414,1.45057 -1.18935,2.67506 -1.18935,2.72109 0,0.0856 0.63307,0.0246 5.02709,-0.48464 z m -34.380602,-2.1204 c -0.890606,-1.03222 -2.1098,-2.5723 -2.70932,-3.42242 l -1.090036,-1.54568 -1.878248,-0.30641 c -1.033034,-0.16852 -2.887313,-0.52648 -4.120615,-0.79545 -1.233305,-0.26897 -2.304868,-0.42304 -2.38125,-0.34237 -0.248976,0.26294 4.567841,4.58197 6.817045,6.11255 1.781395,1.21224 2.526916,1.5521 3.96875,1.80921 3.244683,0.5786 3.219133,0.60627 1.393674,-1.50943 z m 41.868542,1.10451 c 2.62193,-0.47282 2.9291,-0.59517 4.47659,-1.78307 1.8633,-1.43032 5.91385,-5.31909 5.73092,-5.50202 -0.0653,-0.0653 -2.16731,0.26243 -4.67123,0.72819 l -4.55258,0.84685 -0.70751,1.05833 c -0.38913,0.58208 -1.46525,1.98107 -2.39136,3.10885 -1.93457,2.35583 -2.02542,2.28956 2.11517,1.54287 z M 78.140762,184.67763 C 77.7042,184.36585 76.16206,182.94001 74.713786,181.5091 l -2.633228,-2.60166 -3.028038,-0.79183 c -1.665419,-0.43551 -3.144189,-0.79184 -3.286149,-0.79184 -1.007981,0 4.976485,4.05863 9.371119,6.35543 3.014845,1.57567 4.505389,2.0712 3.003272,0.99843 z m 63.170818,-4.27494 c 3.05379,-2.02751 4.07673,-2.81434 3.65885,-2.81434 -0.17245,0 -1.66127,0.35967 -3.30849,0.79927 l -2.99494,0.79927 -2.8126,2.8126 c -1.54693,1.54693 -2.8126,2.85903 -2.8126,2.91577 0,0.26625 6.01844,-3.01783 8.26978,-4.51257 z m -36.31562,-3.3435 v -5.02709 l -0.59532,-7.9e-4 c -0.32742,-5.3e-4 -3.4369,-0.12553 -6.909935,-0.2779 -3.473051,-0.15237 -6.358123,-0.23355 -6.411272,-0.18041 -0.149043,0.14905 1.883386,8.13794 2.351751,9.24404 0.413811,0.97728 0.419241,0.9799 2.219491,1.07266 0.99257,0.0511 3.501301,0.11631 5.574965,0.14481 l 3.77032,0.0518 z m 12.05944,4.6975 c 0.21126,-0.21126 2.20073,-8.25201 2.07334,-8.37972 -0.0605,-0.0607 -0.56502,0.25526 -1.12109,0.70213 -1.34044,1.07721 -2.46447,1.35529 -6.316,1.56258 l -3.22619,0.17364 -0.17216,-0.68595 c -0.0947,-0.37727 -0.0931,-0.81394 0.004,-0.97039 0.0967,-0.15644 -0.0804,-0.69899 -0.39354,-1.20566 -0.47045,-0.76121 -0.72643,-0.92122 -1.4738,-0.92122 h -0.90446 v 5.0642 5.06419 l 5.6947,-0.13146 c 3.13209,-0.0723 5.7581,-0.19486 5.83558,-0.27234 z m 7.25119,-0.63536 c 1.96236,-0.22199 3.6491,-0.45379 3.74833,-0.51512 0.53164,-0.32857 3.41741,-5.91114 4.62054,-8.93852 l 0.618,-1.55503 -1.25031,0.15027 c -0.68767,0.0826 -3.33391,0.35381 -5.88052,0.60259 -6.00396,0.58653 -6.06875,0.62676 -6.87948,4.27168 -0.31604,1.4209 -0.80245,3.37019 -1.08091,4.33176 -0.27845,0.96158 -0.50628,1.88535 -0.50628,2.05283 0,0.32834 0.36206,0.30641 6.61063,-0.40046 z m -31.288177,-0.0272 c -0.07316,-0.25466 -0.443701,-1.51628 -0.823415,-2.80361 -0.379717,-1.28732 -0.895652,-3.33777 -1.146527,-4.55655 l -0.456136,-2.21598 -1.066411,-0.13109 c -0.586526,-0.0721 -2.971411,-0.31621 -5.299745,-0.54248 -2.328333,-0.22628 -4.920382,-0.48523 -5.760111,-0.57545 l -1.526779,-0.16405 1.205685,2.88184 c 0.663128,1.58502 1.780033,3.89333 2.482012,5.12957 1.262777,2.22387 1.289693,2.24996 2.535801,2.45888 2.322523,0.38937 7.134887,0.92491 8.56873,0.95357 1.233617,0.0247 1.402469,-0.0324 1.286896,-0.43465 z m 41.692287,-1.569 c 3.42863,-0.66379 3.68842,-0.75729 4.22463,-1.52044 0.31424,-0.44724 0.71841,-0.96481 0.89815,-1.15017 1.0858,-1.11965 5.65894,-8.79112 5.24059,-8.79112 -0.10251,0 -1.80991,0.29728 -3.79423,0.66061 -1.98431,0.36334 -4.47646,0.80982 -5.5381,0.99219 l -1.93027,0.33158 -0.89232,2.18366 c -0.49077,1.20101 -1.61953,3.5682 -2.50834,5.26043 l -1.61602,3.07677 1.13131,-0.16811 c 0.62223,-0.0925 2.7753,-0.48639 4.7846,-0.8754 z m -53.527229,0.60223 c 0,-0.0588 -0.391449,-0.80292 -0.869884,-1.65364 -1.10581,-1.96628 -1.899539,-3.64737 -2.978933,-6.30928 l -0.858301,-2.11666 -1.681337,-0.31839 c -4.742691,-0.8981 -8.836525,-1.58924 -8.928423,-1.50732 -0.05684,0.0506 0.633786,1.37992 1.53471,2.95393 1.868758,3.26489 4.884074,7.46232 5.379213,7.48805 0.183239,0.01 1.940507,0.3568 3.905038,0.77172 3.552518,0.75032 4.497917,0.89568 4.497917,0.69159 z m -9.862453,-2.08264 c -0.07121,-0.18559 -0.810747,-1.28691 -1.643401,-2.44739 -0.832654,-1.16049 -2.218918,-3.36884 -3.080583,-4.90746 l -1.566669,-2.79748 -2.04376,-0.48002 c -1.124068,-0.26401 -2.966494,-0.74745 -4.094281,-1.07432 -1.127786,-0.32686 -2.050521,-0.50726 -2.050521,-0.40088 0,0.32315 2.775189,4.63652 4.044026,6.28547 2.968135,3.85731 3.14098,3.98463 6.936183,5.10915 1.891771,0.56053 3.482086,1.02617 3.534037,1.03476 0.05195,0.009 0.03618,-0.13624 -0.03503,-0.32183 z m 71.510922,-0.44797 c 2.57198,-0.72727 2.86402,-0.87904 3.94572,-2.05052 2.18391,-2.3652 7.23952,-9.59949 6.7085,-9.59949 -0.11072,0 -1.8738,0.42797 -3.91794,0.95106 l -3.71661,0.95106 -0.78251,1.49504 c -1.22641,2.34313 -3.22909,5.56038 -4.50821,7.24232 -0.643,0.84549 -1.16909,1.59546 -1.16909,1.6666 0,0.25257 0.69642,0.11976 3.44014,-0.65607 z m 10.93994,-7.77833 c 2.3686,-2.62965 4.46932,-5.21881 4.33958,-5.34855 -0.0529,-0.0529 -0.91357,0.16852 -1.91269,0.49195 -1.63104,0.52797 -1.88628,0.70755 -2.49876,1.75799 -1.09908,1.88496 -3.44029,5.31611 -4.82392,7.06965 -0.70522,0.89376 -1.28221,1.71004 -1.28221,1.81397 0,0.34313 4.204,-3.59344 6.178,-5.78501 z m -93.754367,1.92868 c -0.892692,-1.20398 -2.180779,-3.10849 -2.862414,-4.23224 -1.030828,-1.69945 -1.400302,-2.09226 -2.196076,-2.33483 -0.526206,-0.1604 -1.026028,-0.29163 -1.110715,-0.29163 -0.460587,0 0.621129,1.94314 1.908969,3.42918 1.879172,2.16837 5.617884,5.88399 5.768752,5.73312 0.06301,-0.063 -0.615823,-1.09963 -1.508516,-2.3036 z m 44.921877,-2.8238 -0.0757,-2.57969 -6.604098,-0.1765 c -3.632264,-0.0971 -6.936248,-0.24293 -7.342188,-0.32412 -0.664774,-0.13295 -0.737108,-0.076 -0.728348,0.57338 0.01312,0.97296 0.658257,4.25529 0.879938,4.47697 0.215162,0.21516 5.617951,0.50891 10.430836,0.56713 l 3.51531,0.0425 z m 1.51178,2.05052 c -0.26339,-0.29104 -0.5795,-0.52917 -0.70247,-0.52917 -0.12297,0 -0.22358,0.23813 -0.22358,0.52917 0,0.39629 0.17639,0.52917 0.70247,0.52917 0.6857,0 0.69104,-0.0126 0.22358,-0.52917 z m -16.089999,-0.59531 c -0.07704,-0.32743 -0.282599,-1.5039 -0.456785,-2.6144 l -0.316706,-2.01908 -2.151584,-0.18063 c -2.079392,-0.17463 -9.301035,-1.05179 -11.329876,-1.37622 l -0.9925,-0.15871 0.531082,1.91648 c 1.028314,3.7108 0.907029,3.57831 3.58947,3.92103 4.255193,0.54366 8.311531,0.95885 10.378403,1.06231 0.795195,0.0398 0.873858,-0.0181 0.748496,-0.55083 z m 41.920439,-0.60382 1.2242,-0.16448 0.56007,-1.75404 c 0.37101,-1.16191 0.47132,-1.84278 0.29716,-2.01694 -0.1446,-0.1446 -0.26291,-0.53676 -0.26291,-0.87145 0,-0.71754 0.12823,-0.70984 -3.57188,-0.21464 -1.60073,0.21423 -3.12172,0.39184 -3.37998,0.39468 -0.25826,0.003 -0.57488,0.27306 -0.7036,0.60048 -0.12871,0.32742 -0.85273,1.07156 -1.60894,1.65364 -0.88689,0.68268 -1.55281,1.46526 -1.87609,2.20475 -0.27565,0.63053 -0.50118,1.17142 -0.50118,1.20198 0,0.0594 7.78093,-0.75959 9.82315,-1.03398 z m -56.133658,-0.58681 c -0.0046,-0.10914 -0.347384,-1.32953 -0.761658,-2.71198 l -0.753227,-2.51354 -1.95032,-0.33857 c -1.072674,-0.18621 -3.598977,-0.70053 -5.614004,-1.14291 -2.015025,-0.44239 -3.721107,-0.74692 -3.791292,-0.67674 -0.07019,0.0702 0.372292,1.38268 0.983283,2.91665 l 1.110893,2.78904 1.489776,0.31005 c 6.152311,1.28039 9.302551,1.74446 9.286549,1.368 z m 64.985198,-0.87979 4.35879,-0.83521 0.55855,-1.2261 c 0.61061,-1.34036 1.80797,-4.45303 1.80797,-4.70002 0,-0.085 -0.20836,-0.0746 -0.46302,0.0231 -0.25466,0.0977 -2.12989,0.53132 -4.16719,0.96352 -2.03729,0.43219 -3.95982,0.84041 -4.27229,0.90715 -0.31247,0.0667 -0.8184,0.54552 -1.12428,1.06396 -0.36001,0.61017 -0.97339,1.12718 -1.73919,1.46593 -1.00267,0.44353 -1.22678,0.68581 -1.47006,1.58926 -0.15786,0.58627 -0.35997,1.25605 -0.44913,1.48839 -0.20669,0.53861 0.90241,0.42068 6.95985,-0.74002 z m -76.39799,-1.23688 c -0.04853,-0.10914 -0.56447,-1.41655 -1.146528,-2.90537 l -1.058287,-2.70694 -1.455208,-0.41343 c -0.800365,-0.22739 -2.854193,-0.85767 -4.564063,-1.40061 -2.196595,-0.6975 -3.108854,-0.8874 -3.108854,-0.64717 0,0.79943 2.744998,5.94724 3.308085,6.2038 0.770309,0.35097 7.001201,2.02493 7.628026,2.0493 0.266789,0.0104 0.445362,-0.0704 0.396829,-0.17958 z m 84.18164,-0.4656 c 0.94588,-0.23503 2.51101,-0.65935 3.47805,-0.94294 l 1.75827,-0.51561 1.49801,-3.06871 c 0.82391,-1.68779 1.43785,-3.12888 1.36432,-3.20241 -0.0735,-0.0735 -1.53886,0.30865 -3.25628,0.84928 -1.71742,0.54063 -3.59057,1.12701 -4.16255,1.30306 -1.00155,0.30828 -1.08211,0.42213 -2.18104,3.0823 -0.62759,1.51921 -1.14187,2.85952 -1.14285,2.97846 -0.001,0.11895 0.20659,0.15499 0.46125,0.0801 0.25466,-0.0749 1.23693,-0.32848 2.18282,-0.56352 z m -44.45001,-0.91917 c 0,-0.14316 -0.64225,-1.15541 -1.42723,-2.24944 -1.3416,-1.86979 -1.41342,-2.04866 -1.19694,-2.98086 0.45222,-1.94733 0.70953,-1.82347 -4.188835,-2.01647 -2.437475,-0.096 -5.354335,-0.24754 -6.48191,-0.33666 l -2.050137,-0.16204 0.128516,1.15861 c 0.463452,4.17808 0.723683,5.94713 0.901452,6.12804 0.111831,0.11381 2.336683,0.30421 4.94411,0.4231 7.048544,0.3214 9.370974,0.33025 9.370974,0.0357 z m -15.177089,-2.05481 c -0.09343,-0.83674 -0.246364,-2.43841 -0.339841,-3.55925 -0.196266,-2.35336 0.08675,-2.17525 -3.929931,-2.47317 -1.309687,-0.0971 -4.405312,-0.45044 -6.879167,-0.7851 -2.473854,-0.33467 -4.527494,-0.5799 -4.563642,-0.54495 -0.03615,0.0349 0.254032,1.68258 0.644848,3.6614 l 0.710573,3.59786 1.604111,0.27083 c 1.4361,0.24246 6.717175,0.91962 9.144735,1.17256 0.509323,0.0531 1.567778,0.11554 2.35212,0.13883 l 1.42608,0.0423 z m -33.770814,1.16196 c 0,-0.0522 -0.634575,-1.42822 -1.410167,-3.05794 -1.239279,-2.60406 -1.45354,-2.91088 -1.768088,-2.53187 -0.30514,0.36767 -0.250507,0.7611 0.370474,2.66792 0.638706,1.96124 0.83198,2.28201 1.56965,2.60509 0.87851,0.38476 1.238131,0.47678 1.238131,0.3168 z m 101.565343,-0.59007 c 1.8366,-0.68076 1.85718,-0.69944 3.42685,-3.10885 1.43208,-2.19824 2.9578,-4.80548 2.9578,-5.05448 0,-0.054 -1.25845,0.45709 -2.79655,1.13576 l -2.79656,1.23395 -1.55159,3.23925 c -0.85338,1.78159 -1.44721,3.23925 -1.31963,3.23925 0.12759,0 1.06344,-0.30819 2.07968,-0.68488 z m -24.67807,-0.14648 c 1.98486,-0.29521 2.00805,-0.30792 2.77236,-1.51911 0.64848,-1.02764 0.74536,-1.39895 0.61068,-2.3406 -0.12383,-0.86582 -0.0336,-1.33348 0.39835,-2.06565 0.30712,-0.52054 0.55841,-1.18722 0.55841,-1.48151 0,-0.44229 -0.12615,-0.51005 -0.7276,-0.3908 -0.40018,0.0794 -1.15445,0.21744 -1.67615,0.30686 -1.34014,0.22973 -7.23807,5.90701 -7.5198,7.23847 l -0.19057,0.90068 1.88636,-0.17532 c 1.0375,-0.0964 2.78708,-0.30928 3.88796,-0.47302 z m -58.546647,-3.71643 c -0.333407,-1.64606 -0.607849,-3.26072 -0.609867,-3.58815 -0.0021,-0.32742 -0.05397,-0.59531 -0.115435,-0.59531 -0.06147,0 -2.532018,-0.49233 -5.490105,-1.09407 -7.419404,-1.50926 -6.951463,-1.44691 -6.740899,-0.89819 0.09739,0.25379 0.473903,1.63244 0.836699,3.06366 0.999435,3.94274 0.948042,3.85796 2.560171,4.22369 3.240019,0.73504 9.883003,2.03555 10.018784,1.9614 0.08077,-0.0441 -0.125939,-1.42697 -0.459348,-3.07303 z m 69.455587,1.75158 c 2.42609,-0.51926 4.55458,-1.08481 4.72999,-1.25677 0.3536,-0.34665 2.13381,-6.94631 1.92761,-7.14612 -0.0714,-0.0692 -1.61814,0.21804 -3.43715,0.63833 -1.81901,0.42029 -3.57292,0.76574 -3.89757,0.76767 -0.43019,0.003 -0.63062,0.20084 -0.73904,0.73112 -0.0818,0.40018 -0.8574,2.18612 -1.72349,3.96875 -0.8661,1.78263 -1.50648,3.24115 -1.42307,3.24115 0.0834,0 2.13663,-0.42486 4.56272,-0.94413 z m -81.99295,-4.79038 c -0.472536,-1.86649 -0.954779,-3.50196 -1.071651,-3.63437 -0.198308,-0.22468 -5.848175,-1.96765 -6.468573,-1.99554 -0.19492,-0.009 -0.176226,0.78235 0.06066,2.56702 0.573504,4.32072 0.540425,4.21908 1.485498,4.5649 1.514679,0.55425 6.670307,2.05912 6.76316,1.97408 0.04953,-0.0454 -0.296557,-1.6096 -0.769092,-3.47609 z m 90.59108,2.56346 c 1.42976,-0.43107 3.29521,-1.03741 4.14545,-1.34742 l 1.54587,-0.56366 1.20011,-3.60072 c 0.66005,-1.98039 1.15819,-3.64263 1.10696,-3.69386 -0.0512,-0.0512 -1.86142,0.46218 -4.02263,1.1409 -2.16122,0.67872 -4.22714,1.32059 -4.59094,1.42638 -0.49191,0.14303 -0.72445,0.45845 -0.90721,1.23056 -0.13516,0.57104 -0.56452,2.1991 -0.95414,3.61793 -0.44791,1.63109 -0.60077,2.57858 -0.41572,2.57667 0.16098,-0.002 1.4625,-0.35571 2.89225,-0.78678 z m -48.82352,-3.58616 0.85317,-1.73013 -0.99482,-3.22021 c -0.95975,-3.1067 -1.0565,-3.28675 -2.74496,-5.10783 -0.962584,-1.03819 -1.797268,-2.029 -1.854868,-2.2018 -0.0694,-0.20808 -1.444197,-0.40011 -4.070683,-0.56858 -2.181275,-0.13991 -4.36463,-0.28496 -4.851902,-0.32233 l -0.88595,-0.0679 0.0394,3.69353 c 0.04476,4.1959 0.448209,10.45621 0.689404,10.6974 0.220913,0.22092 4.494961,0.46193 9.122241,0.51441 l 3.845808,0.0436 z m 58.6364,-0.0324 c 0.88577,-0.38231 1.86195,-0.96314 2.16931,-1.29072 0.30736,-0.32759 1.09877,-1.88798 1.75869,-3.46754 1.86707,-4.46898 1.97664,-4.2062 -1.18247,-2.83579 -1.4974,0.64957 -3.00024,1.32389 -3.33963,1.49849 -0.48607,0.25006 -0.86475,1.07583 -1.78355,3.88933 -0.64156,1.96454 -1.16755,3.60324 -1.16886,3.64158 -0.002,0.0731 0.86723,-0.27891 3.54651,-1.43535 z m -73.230937,-1.21404 c -0.09673,-1.34607 -0.251719,-4.59944 -0.344424,-7.22971 l -0.168555,-4.78232 -3.994674,-0.46466 c -4.224581,-0.49141 -10.266464,-1.38891 -11.114715,-1.65105 -0.487897,-0.15078 -0.499301,-0.0104 -0.32829,4.04228 0.206568,4.89526 0.673693,9.8379 0.986851,10.44189 0.162978,0.31434 1.120196,0.54212 3.737163,0.88929 4.26184,0.56538 9.277062,1.12336 10.502998,1.16853 l 0.899517,0.0331 z m 50.764327,1.02871 c 0.48866,-0.37002 0.44816,-0.38217 -0.52916,-0.15877 -0.58209,0.13305 -1.14763,0.24476 -1.25677,0.24823 -0.10914,0.003 -0.19844,0.2475 -0.19844,0.54227 0,0.50127 0.0471,0.51114 0.7276,0.15246 0.40019,-0.21093 0.96573,-0.56382 1.25677,-0.78419 z m -2.45105,-0.39065 c 0.28397,-0.28308 0.9332,-6.45475 1.14287,-10.8643 l 0.18118,-3.81009 -1.00259,0.1627 c -0.55142,0.0895 -1.07175,0.2643 -1.15629,0.38848 -0.0845,0.12418 -0.89784,1.24825 -1.80735,2.49795 -1.86359,2.56064 -1.94099,2.94473 -1.24113,6.15856 0.28326,1.30077 0.35141,2.47428 0.22893,3.94232 l -0.17438,2.09024 1.81699,-0.18585 c 0.99934,-0.10222 1.90464,-0.27322 2.01177,-0.38001 z M 72.879361,154.6358 c -0.284684,-1.90159 -0.683141,-7.10053 -0.792877,-10.34521 -0.06078,-1.79718 -0.211717,-3.35811 -0.335409,-3.46874 -0.123693,-0.11062 -1.296459,-0.4063 -2.606146,-0.65705 -2.254637,-0.43169 -5.888289,-1.32674 -8.665105,-2.13441 l -1.256771,-0.36555 0.0046,2.16855 c 0.007,3.33351 1.06581,12.31508 1.541989,13.08082 0.161743,0.2601 5.032347,1.42405 9.565926,2.28601 2.85319,0.54247 2.714138,0.57333 2.543807,-0.56442 z m 67.107749,0.54917 c 0.10914,-0.0646 0.19844,-0.30153 0.19844,-0.52659 0,-0.22507 0.2826,-0.74507 0.628,-1.15555 0.72633,-0.8632 1.22408,-0.62306 1.22408,0.59057 0,0.40746 0.0666,0.74083 0.14804,0.74083 0.2159,0 5.86473,-1.28295 7.02796,-1.59618 0.92611,-0.24937 1.00946,-0.35718 1.27601,-1.65041 0.46414,-2.25184 1.06711,-8.60194 1.07016,-11.2702 0.003,-2.44452 -0.005,-2.47595 -0.59248,-2.30847 -1.30525,0.37226 -9.16727,2.26007 -10.78177,2.5889 l -1.7198,0.35027 -0.172,4.62794 c -0.0946,2.54537 -0.30296,5.5593 -0.46302,6.69761 -0.16006,1.13832 -0.29102,2.36917 -0.29102,2.73524 0,0.63582 0.0503,0.65725 1.12448,0.4795 0.61846,-0.10234 1.21378,-0.23889 1.32292,-0.30346 z m -79.817926,-2.87843 c -0.44163,-1.7596 -0.990061,-6.23036 -1.270267,-10.35511 l -0.308986,-4.54842 -0.675627,-0.1692 c -0.938994,-0.23515 -6.734273,-2.4134 -7.620778,-2.86439 -0.40027,-0.20363 -0.995655,-0.45287 -1.323077,-0.55387 -0.553571,-0.17077 -0.595312,-0.10383 -0.595312,0.95469 0,1.09914 0.105709,1.24432 3.070099,4.21646 l 3.0701,3.07812 0.274896,2.08523 c 0.271428,2.05892 0.264408,2.10599 -0.556558,3.73133 -0.767984,1.52044 -1.101987,3.23851 -0.633016,3.25615 0.10914,0.004 1.567656,0.41501 3.241145,0.91312 1.67349,0.49811 3.144913,0.91147 3.269829,0.91858 0.124916,0.007 0.150815,-0.29111 0.05755,-0.66269 z m 96.288236,-1.13462 3.70417,-1.23248 0.5869,-2.64583 c 0.84311,-3.80087 1.9054,-13.36146 1.48461,-13.36146 -0.0652,0 -1.74858,0.64051 -3.74086,1.42336 -1.99227,0.78285 -4.22947,1.6199 -4.97154,1.86011 l -1.34921,0.43676 -0.1781,3.54872 c -0.17475,3.48223 -0.74264,8.92239 -1.11627,10.69361 l -0.1892,0.89694 1.03267,-0.19363 c 0.56796,-0.1065 2.69954,-0.74824 4.73683,-1.4261 z m 6.64434,-2.38815 c 1.45291,-0.60498 2.82002,-1.2093 4.00784,-1.77164 0.23793,-0.11265 1.20955,-5.55586 1.52906,-8.5661 0.3686,-3.4729 0.51853,-8.21805 0.25965,-8.21805 -0.0698,0 -1.48025,0.7747 -3.13444,1.72156 l -3.00761,1.72155 -0.17207,3.20012 c -0.1832,3.40721 -0.7669,7.81567 -1.37997,10.4224 -0.43666,1.85667 -0.46334,2.24896 -0.15298,2.24896 0.12551,0 1.04824,-0.34146 2.05052,-0.7588 z m -64.352231,-6.65489 c 0.234077,-0.58503 0.425597,-1.7726 0.425597,-2.63904 0,-1.4616 -0.054,-1.6033 -0.748437,-1.96239 -0.599744,-0.31014 -0.975354,-0.32944 -1.890614,-0.0971 l -1.142166,0.28992 -1.175917,-1.36489 c -1.075749,-1.24862 -1.269667,-1.36314 -2.276571,-1.34454 -1.812575,0.0335 -3.170147,0.55906 -3.378758,1.30807 -0.253585,0.91049 -0.272338,5.61224 -0.02394,6.00309 0.196779,0.30963 4.493329,0.74823 8.160292,0.83302 l 1.624917,0.0376 z m -10.686891,-2.93375 v -3.20368 l -0.727605,0.20555 c -0.400182,0.11305 -0.965729,0.17637 -1.25677,0.14071 -0.291042,-0.0357 -1.810253,-0.10752 -3.376023,-0.15969 -2.251475,-0.075 -2.973515,-0.19529 -3.452477,-0.57505 -3.507301,-2.78091 -4.680876,-3.90619 -4.680876,-4.48825 0,-0.60209 -1.017323,-2.46412 -1.35001,-2.47096 -0.346366,-0.007 -0.928433,11.50718 -0.592214,11.71497 0.580268,0.35863 11.820046,1.96925 14.046912,2.01288 l 1.389063,0.0272 z m 81.327952,1.02088 c 0.7238,-3.31694 1.20605,-6.47285 1.39085,-9.10196 l 0.17855,-2.54 -0.70285,0.46052 c -0.62431,0.40907 -0.70284,0.62859 -0.70284,1.96471 0,1.96969 -0.49045,8.27654 -0.76818,9.87818 -0.34542,1.99206 0.14178,1.45894 0.60447,-0.66145 z m -31.56465,0.33072 c 0.13361,0 0.24294,-0.31841 0.24294,-0.70757 v -0.70758 l -0.66146,0.6214 c -0.7464,0.70121 -0.87233,1.19587 -0.24294,0.95435 0.23018,-0.0883 0.52784,-0.1606 0.66146,-0.1606 z m -65.705809,-3.17732 c 0.04307,-1.52669 0.19494,-4.16551 0.33749,-5.86404 0.346636,-4.13025 0.354867,-4.03349 -0.421664,-4.95634 -0.462354,-0.54948 -0.626555,-0.9802 -0.511665,-1.34218 0.252654,-0.79604 -0.411562,-2.3872 -1.046752,-2.50755 -0.296373,-0.0562 -2.675358,-0.58719 -5.286632,-1.18007 -3.388386,-0.76932 -4.800906,-0.99199 -4.933351,-0.77769 -0.410682,0.6645 -0.882839,6.73408 -0.892237,11.46972 l -0.01,5.02599 2.000122,0.56975 c 3.083448,0.87835 9.859784,2.45281 10.296243,2.3923 0.30974,-0.0429 0.406249,-0.62599 0.468421,-2.82989 z m 71.176209,2.10547 c 3.45831,-0.7678 5.44004,-1.27135 7.44602,-1.89202 l 0.89953,-0.27832 -0.16744,-3.60442 c -0.22178,-4.77464 -1.1495,-12.20634 -1.57712,-12.63396 -0.31547,-0.31547 -7.41853,1.52894 -8.22827,2.13659 -0.45213,0.33929 -1.5662,0.98892 -2.4757,1.44362 -1.63973,0.81978 -1.65361,0.83616 -1.6496,1.9474 0.007,1.90372 0.12574,1.92599 3.18704,0.59717 1.51579,-0.65796 2.77421,-1.19629 2.79648,-1.19629 0.21339,0 0.31482,1.42374 0.127,1.78274 -0.13415,0.25642 -0.37377,1.09857 -0.53248,1.87145 -0.48892,2.38088 -1.83714,5.2246 -3.35484,7.07618 -1.1141,1.35918 -1.4335,1.95029 -1.4335,2.65298 0,1.15406 0.18491,1.15767 4.96288,0.0969 z m 12.98352,-3.72157 c 1.98943,-0.74461 4.19329,-1.64495 4.89747,-2.00077 l 1.28032,-0.64692 -0.16715,-3.09247 c -0.24847,-4.59701 -0.93252,-10.12371 -1.34753,-10.8873 -0.80463,-1.48045 -0.58051,-1.47098 -4.51717,-0.19078 -2.0199,0.65687 -4.17856,1.32796 -4.79703,1.49131 -0.61846,0.16335 -1.12447,0.39963 -1.12447,0.52507 0,0.12544 0.23091,1.81749 0.51313,3.76011 0.46134,3.17549 1.07437,9.84171 1.07437,11.68295 0,0.39195 0.12845,0.71264 0.28545,0.71264 0.157,0 1.91318,-0.60923 3.90261,-1.35384 z m -97.48801,-3.87168 c 0.09986,-2.72852 0.354296,-6.38969 0.565426,-8.13594 0.211129,-1.74625 0.386362,-3.25951 0.389408,-3.3628 0.003,-0.1033 -0.798136,-0.43241 -1.780401,-0.73137 -0.982266,-0.29896 -3.137386,-1.03551 -4.789156,-1.63677 -2.345418,-0.85377 -3.049808,-1.01783 -3.215927,-0.74905 -0.534225,0.86441 -1.567809,9.70998 -1.579237,13.51537 l -0.0068,2.27288 2.579687,1.09678 c 2.681006,1.13986 6.864565,2.66251 7.366538,2.68112 0.19277,0.007 0.349359,-1.6404 0.470488,-4.95022 z m -12.64203,2.97656 c 0.202741,-0.80778 0.306853,-0.81606 1.083785,-0.0862 0.583124,0.54782 0.613331,0.55098 0.632608,0.0661 0.01113,-0.28003 0.05976,-0.715 0.108065,-0.96661 0.125469,-0.65357 -2.726215,-2.29305 -3.063138,-1.76105 -0.321466,0.50759 -0.300694,0.756 0.181576,2.17138 0.470515,1.38089 0.80887,1.56535 1.057104,0.5763 z m -0.77321,-0.96981 c -0.187534,-0.71714 -0.07298,-0.86841 0.493128,-0.65117 0.466313,0.17894 0.437684,0.98763 -0.0406,1.14686 -0.163373,0.0544 -0.36701,-0.16867 -0.452528,-0.49569 z m 119.65434,-1.98247 c 3.45862,-1.91816 3.99451,-2.38493 3.99135,-3.47657 -0.008,-2.88606 -1.52279,-13.30895 -2.00366,-13.78982 -0.15943,-0.15943 -3.54986,1.53628 -3.5494,1.77523 2e-4,0.10294 0.1787,1.1992 0.39666,2.43614 0.31843,1.80709 0.33672,2.5523 0.0931,3.79278 l -0.30321,1.54382 -0.7849,-1.35949 c -0.43169,-0.74772 -0.81807,-1.32337 -0.85862,-1.27923 -0.0406,0.0441 0.0247,0.67557 0.14502,1.40317 0.12032,0.72761 0.30452,3.25768 0.40933,5.6224 0.11345,2.55939 0.29753,4.29948 0.45485,4.29948 0.14535,0 1.04962,-0.43556 2.00949,-0.96791 z m -0.0937,-7.54837 c -0.25547,-1.57934 -0.0639,-2.17667 0.38888,-1.21281 0.24666,0.52503 0.26723,0.95804 0.0755,1.5875 l -0.26372,0.86555 z m -116.966712,5.14284 c 0.221418,-3.89319 0.545742,-6.87845 1.107015,-10.1896 0.240799,-1.42055 0.389614,-2.62098 0.3307,-2.66761 -0.650679,-0.51509 -5.799153,-3.02779 -5.892938,-2.87604 -0.06895,0.11156 -0.378009,1.5094 -0.686805,3.10632 -0.756613,3.91277 -0.563991,6.72026 0.548709,7.99754 0.796606,0.91443 1.769789,3.73538 1.891783,5.48369 0.06417,0.91964 0.206631,1.12817 1.126756,1.6493 0.579313,0.3281 1.130848,0.59851 1.225633,0.6009 0.09479,0.002 0.251902,-1.39463 0.349147,-3.1045 z m 122.558852,-1.1706 c 0.74066,-0.69582 0.83199,-2.57959 0.22315,-4.60262 -0.25173,-0.83645 -0.29846,-1.384 -0.13229,-1.55017 0.14131,-0.14131 0.25692,-0.69299 0.25692,-1.22595 0,-0.97307 -1.19141,-7.2296 -1.45923,-7.66294 -0.11074,-0.17918 -1.98035,0.67514 -1.98035,0.90493 0,0.0288 0.23259,1.1184 0.51687,2.42128 0.67412,3.08958 1.33521,8.17737 1.33521,10.27584 0,2.17911 0.2024,2.41414 1.23972,1.43963 z m -33.36838,-1.66965 c -0.11301,-0.6024 -0.30198,-0.85822 -0.61569,-0.83347 -0.31443,0.0248 -0.52873,-0.26726 -0.70185,-0.95649 -0.23276,-0.92669 -0.31496,-0.99219 -1.24526,-0.99219 -0.54783,0 -1.06964,0.11907 -1.15958,0.26459 -0.0899,0.14552 -0.0672,0.26606 0.0505,0.26788 0.11773,0.002 0.72745,0.4801 1.35493,1.06286 0.77485,0.71962 1.09415,1.20676 0.99524,1.51839 -0.0993,0.31287 0.0849,0.58969 0.57892,0.87016 0.85153,0.48341 1.01061,0.22604 0.74276,-1.20173 z m -2.82941,-3.21209 c 0.5365,-0.1073 0.82682,-0.32312 0.82682,-0.61464 0,-0.85051 -2.3159,-4.09272 -3.39649,-4.755 -0.75276,-0.46137 -1.12938,-0.92332 -1.3482,-1.65366 -0.27412,-0.91495 -0.3905,-1.01345 -1.19741,-1.01345 -1.46444,0 -1.77912,0.20663 -1.34685,0.88438 0.20024,0.31396 0.51544,1.10662 0.70045,1.76147 0.185,0.65484 0.76084,1.66689 1.27962,2.24897 0.51879,0.58208 1.17658,1.50089 1.46175,2.0418 0.63708,1.2084 1.28993,1.4462 3.02031,1.10013 z m -62.283475,-1.75287 c 0.536342,-2.36177 0.656584,-3.11736 0.663159,-4.16721 0.0045,-0.71708 0.219829,-1.53896 0.54142,-2.06643 0.293679,-0.48169 0.474501,-0.97202 0.401825,-1.08961 -0.07268,-0.1176 -0.700357,-0.28957 -1.394849,-0.38216 -1.131221,-0.15083 -8.516597,-1.80743 -9.622288,-2.15837 -0.359471,-0.11409 -0.542497,0.24303 -0.983128,1.91829 -0.297785,1.13217 -0.677181,2.77287 -0.843102,3.64599 -0.165921,0.87314 -0.359056,1.78965 -0.429189,2.03671 -0.147003,0.51787 0.11356,0.60259 5.984791,1.94599 4.7361,1.08367 5.497565,1.12613 5.681361,0.3168 z m 75.035815,-0.58734 c 1.48435,-0.35941 2.73886,-0.69353 2.78781,-0.74248 0.0489,-0.049 -0.0127,-0.49902 -0.13698,-1.00017 -0.12428,-0.50114 -0.49834,-2.1018 -0.83124,-3.55702 -0.59175,-2.58675 -0.61293,-2.62811 -0.94866,-1.85209 -0.18887,0.43657 -0.27789,1.12342 -0.19781,1.52633 0.21698,1.09178 -1.57815,4.06425 -2.6726,4.42546 -0.53379,0.17617 -0.91864,0.54267 -1.11439,1.06128 -0.37278,0.98759 -0.38901,0.98687 3.11387,0.13869 z m 8.72901,-2.41313 c 2.0152,-0.64889 3.73983,-1.30252 3.83252,-1.4525 0.2178,-0.3524 -2.2486,-7.38719 -2.58995,-7.38719 -0.14225,0 -0.18812,0.28094 -0.10193,0.62432 0.1061,0.42277 -0.003,0.76891 -0.33814,1.07215 -0.46908,0.42452 -0.5249,0.40958 -1.07304,-0.28727 -0.33513,-0.42607 -0.459,-0.77482 -0.29464,-0.82961 0.15596,-0.052 0.28357,-0.32374 0.28357,-0.60388 0,-0.39927 -0.10008,-0.45799 -0.46302,-0.27167 -0.25466,0.13074 -1.83224,0.65909 -3.50573,1.17412 -2.47973,0.76317 -3.03516,1.02557 -3.00192,1.4182 0.0224,0.26498 0.4367,2.18656 0.92058,4.27018 l 0.87979,3.78839 0.89396,-0.16771 c 0.49168,-0.0922 2.54276,-0.69863 4.55795,-1.34753 z m -95.663668,-0.17454 c 0.09847,-0.61847 0.46612,-2.27717 0.817006,-3.68599 0.350886,-1.40883 0.637976,-2.72239 0.637976,-2.91904 0,-0.22216 -1.177018,-0.74363 -3.108855,-1.37735 -1.70987,-0.5609 -3.748747,-1.30118 -4.530839,-1.64506 -0.782091,-0.34387 -1.450633,-0.62522 -1.485647,-0.62522 -0.223878,0 -2.251743,6.94636 -2.251743,7.71324 0,0.45694 2.437829,1.50913 6.879167,2.96912 2.765732,0.90917 2.831245,0.89992 3.042935,-0.4297 z m -17.076698,-4.97735 c 0.006,-0.2273 -0.360437,-0.68777 -0.814227,-1.02328 -1.005466,-0.74338 -1.159045,-0.56562 -1.385816,1.60403 -0.148076,1.41672 -0.09291,1.6807 0.556262,2.66167 l 0.72064,1.08896 0.456148,-1.95906 c 0.250881,-1.07748 0.461028,-2.14503 0.466993,-2.37232 z m 7.440568,-0.51278 c 0.402762,-1.52798 0.908249,-3.2661 1.123304,-3.86249 l 0.39101,-1.08435 -1.230872,-0.59436 c -0.67698,-0.32691 -1.922464,-1.01268 -2.767742,-1.52394 -0.845278,-0.51127 -1.596382,-0.87006 -1.669119,-0.79733 -0.246011,0.24601 -2.482553,7.03932 -2.482553,7.54055 0,0.35944 0.715328,0.87572 2.579687,1.86187 1.418829,0.75047 2.747156,1.33608 2.951839,1.30134 0.233946,-0.0397 0.6441,-1.09486 1.104446,-2.84129 z m 114.833168,1.81721 c 1.41057,-0.75184 1.54001,-0.89285 1.39644,-1.52137 -0.35325,-1.54645 -2.03125,-6.38873 -2.36756,-6.83218 -0.32685,-0.43097 -0.36328,-0.38904 -0.39174,0.45088 -0.0924,2.72665 -0.48279,7.61847 -0.64934,8.13599 -0.26174,0.81332 0.13474,0.76735 2.0122,-0.23332 z m -36.33946,0.1327 c 0.32742,-0.0877 0.59531,-0.29604 0.59531,-0.46288 0,-0.42819 -3.60834,-4.48922 -4.16106,-4.68311 -0.25127,-0.0881 -0.53705,-0.44688 -0.63507,-0.7972 -0.17463,-0.62417 -0.17873,-0.62501 -0.20458,-0.0416 -0.0347,0.78385 -0.2789,0.75105 -0.9849,-0.13229 -0.82318,-1.02995 -1.07425,-0.55699 -0.34375,0.64754 3.46973,5.72131 3.40509,5.63654 4.29486,5.63273 0.46413,-0.002 1.11177,-0.0754 1.43919,-0.16315 z m -54.285176,-2.01933 c 0.302339,-0.47116 0.813403,-1.92821 1.135695,-3.23789 0.322291,-1.3097 0.643514,-2.57395 0.713827,-2.80944 0.105299,-0.35266 -0.304924,-0.50696 -2.32632,-0.87497 -1.34979,-0.24575 -3.97624,-0.81303 -5.836555,-1.26063 -1.860315,-0.44761 -3.425495,-0.76824 -3.478178,-0.71254 -0.288728,0.30532 -2.522727,6.91396 -2.402803,7.10801 0.184099,0.29788 9.78843,2.56238 11.115456,2.62078 0.322625,0.0142 0.743727,-0.31106 1.078878,-0.83332 z m 93.840096,0.002 0.72731,-0.59401 -0.38302,-1.42842 c -0.45503,-1.69699 -1.06669,-2.49393 -0.88362,-1.15128 0.16496,1.20985 -0.24276,1.07204 -0.58464,-0.19762 -0.32308,-1.19982 -2.45172,-4.68489 -2.59639,-4.25088 -0.148,0.444 2.43161,8.20855 2.72846,8.2126 0.14552,0.002 0.59188,-0.26369 0.9919,-0.59039 z m -123.895937,-4.43038 1.319118,-3.83648 -0.903937,-0.85989 c -0.497165,-0.47296 -1.012101,-0.85991 -1.144302,-0.85991 -0.32768,0 -0.853292,1.83499 -0.853292,2.97897 0,0.55519 -0.149836,0.99068 -0.369914,1.07513 -0.204779,0.0786 -0.584057,1.05031 -0.849613,2.17675 l -0.4797,2.03479 0.746429,0.64205 c 0.410536,0.35313 0.852103,0.60673 0.981261,0.56356 0.129158,-0.0432 0.828435,-1.80491 1.55395,-3.91497 z m -1.561525,-0.68351 c 0.0127,-0.30822 0.07539,-0.37092 0.159852,-0.15985 0.07643,0.191 0.06703,0.4192 -0.02089,0.50712 -0.08792,0.0879 -0.150452,-0.0684 -0.138964,-0.34727 z m 100.095812,3.8037 c 0.0212,-0.0426 0.32793,-0.67278 0.6815,-1.40039 0.5384,-1.10795 0.65896,-1.22471 0.74191,-0.71856 0.1021,0.62292 1.83234,1.9092 2.56817,1.9092 0.4767,0 0.50664,-0.415 0.11166,-1.54803 -0.22488,-0.64509 -0.44506,-0.83323 -0.97513,-0.83323 -0.37657,0 -0.95581,-0.25473 -1.2872,-0.56606 -0.57485,-0.54004 -0.63371,-0.54561 -1.28147,-0.12118 -0.63753,0.41773 -0.76945,0.41633 -2.16294,-0.0229 -1.02398,-0.32278 -1.69826,-0.73631 -2.17517,-1.33403 -0.52119,-0.6532 -0.89879,-0.86623 -1.53544,-0.86623 -0.46436,-1e-5 -0.9045,0.0974 -0.97809,0.21649 -0.18362,0.29711 0.7906,1.81011 2.21924,3.44655 1.29383,1.48201 1.70239,1.69419 1.48028,0.76874 -0.0786,-0.32742 0.0533,-0.13663 0.29298,0.42399 0.40959,0.9579 0.49084,1.0104 1.34846,0.87122 0.50193,-0.0815 0.92999,-0.18295 0.95124,-0.22555 z m -80.062268,-3.9917 c 0.636673,-1.77625 1.177149,-3.38026 1.201057,-3.56446 0.02623,-0.2021 -1.017062,-0.69288 -2.631003,-1.23764 -1.47096,-0.49649 -3.418629,-1.21594 -4.328153,-1.59875 -0.909524,-0.38282 -1.676212,-0.65932 -1.703751,-0.61446 -0.548034,0.89278 -3.147835,7.12066 -3.011134,7.21323 0.857425,0.58065 8.976458,3.37057 9.189331,3.15768 0.06934,-0.0693 0.64698,-1.57935 1.283653,-3.3556 z m 88.207218,2.68259 c 1.42932,-0.45912 2.59876,-0.9056 2.59875,-0.99219 0,-0.0866 -0.40786,-0.48286 -0.90634,-0.88059 l -0.90633,-0.72317 -1.74553,0.65702 c -0.96005,0.36136 -1.98094,0.65703 -2.26866,0.65703 -0.28772,0 -0.52313,0.10129 -0.52313,0.2251 0,0.56144 0.60946,1.89157 0.8667,1.89157 0.15718,0 1.45522,-0.37565 2.88454,-0.83477 z m -71.616858,-2.22639 c 1.814214,-0.80572 1.675654,-0.97267 -1.071427,-1.29097 l -1.600597,-0.18546 -0.453316,1.93806 c -0.249325,1.06594 -0.446715,2.05713 -0.438645,2.20265 0.0081,0.14552 0.456081,-0.23578 0.99558,-0.84733 0.601138,-0.68143 1.595519,-1.38489 2.568405,-1.81695 z M 110.023,106.85344 c 0,-0.52363 0.19896,-1.06511 0.48723,-1.32599 0.44958,-0.40686 0.57739,-0.40845 1.65365,-0.0205 0.64153,0.23123 2.40405,0.70382 3.91672,1.0502 3.03608,0.6952 3.89819,0.57821 3.64072,-0.49406 -0.0758,-0.31547 -0.28431,-1.54867 -0.46345,-2.74047 l -0.32571,-2.16688 -1.00395,-0.16962 c -0.71746,-0.12122 -1.0529,-0.3334 -1.17547,-0.74355 -0.0943,-0.315655 -0.42672,-0.781395 -0.73864,-1.034985 -0.44457,-0.36144 -0.49144,-0.51037 -0.21686,-0.68916 0.2853,-0.18577 0.27439,-0.30397 -0.0588,-0.63713 -0.49759,-0.49759 -0.22493,-0.7728 1.22985,-1.24139 0.5457,-0.17577 0.98927,-0.39964 0.98572,-0.4975 -0.006,-0.15984 -0.29547,-1.5397 -0.66217,-3.15448 -0.211,-0.92913 -0.55477,-0.70511 -0.92006,0.59957 -0.31555,1.12705 -0.30008,1.22477 0.27262,1.72147 0.33394,0.28962 0.55831,0.5556 0.4986,0.59105 -1.29628,0.76976 -1.91851,0.96089 -2.35962,0.72481 -0.71863,-0.3846 -1.50629,-0.32209 -1.68109,0.13341 -0.0838,0.21828 -0.33881,0.39688 -0.56678,0.39688 -0.30908,0 -0.35393,0.11775 -0.17635,0.46302 0.13098,0.25466 0.18747,0.60379 0.12553,0.77584 -0.0619,0.17204 0.14294,0.44958 0.45528,0.61675 0.78277,0.41892 0.4955,0.60284 -0.40615,0.26003 -0.66848,-0.25416 -0.70377,-0.23972 -0.3769,0.15415 0.19837,0.23901 0.40078,0.734125 0.44981,1.100255 0.0703,0.52489 -0.002,0.63064 -0.3429,0.49992 -0.23763,-0.0912 -0.52864,-0.16581 -0.64669,-0.16581 -0.38376,0 -0.55301,-0.85114 -0.24342,-1.224165 0.23345,-0.28128 0.20962,-0.36334 -0.1055,-0.36334 -0.64926,0 -2.039,-1.95234 -2.039,-2.86443 0,-0.7092 -0.18703,-0.90673 -1.5875,-1.67664 -0.87312,-0.48001 -1.5875,-0.96432 -1.5875,-1.07625 0,-0.11193 -0.11906,-0.20351 -0.26458,-0.20351 -0.14552,0 -0.26459,0.3446 -0.26459,0.76577 0,0.78463 0.84201,1.87039 2.11667,2.72944 l 0.66146,0.44579 -0.75846,0.0139 c -0.63938,0.0117 -0.73549,0.10174 -0.61211,0.57353 0.15005,0.57382 -0.2956,1.55701 -0.70576,1.55701 -0.12608,0 -0.15708,-0.18806 -0.0689,-0.4179 0.0882,-0.22985 0.088,-0.7061 -2.6e-4,-1.05833 -0.37413,-1.49065 -0.56287,-0.38511 -0.603,3.532015 l -0.0427,4.17246 1.66025,0.97412 c 0.91313,0.53576 1.92813,0.97989 2.25555,0.98694 0.50127,0.0108 0.59531,-0.12698 0.59531,-0.87222 z m 3.43959,-4.67437 c 0,-0.16559 0.42898,-0.20201 1.12448,-0.0955 1.54099,0.23604 1.57959,0.36319 0.11024,0.36319 -0.6791,0 -1.23472,-0.12047 -1.23472,-0.26771 z m -59.845255,2.05274 c 0.773179,-1.78213 1.428022,-3.40698 1.455208,-3.61078 0.02722,-0.20405 -0.604451,-0.725235 -1.40578,-1.159915 -0.800364,-0.43416 -1.834217,-1.07109 -2.29745,-1.4154 -0.463234,-0.34432 -0.944655,-0.62603 -1.069826,-0.62603 -0.265377,0 -3.51189,6.433345 -3.51189,6.959215 0,0.19512 0.863203,0.83912 1.918229,1.4311 2.786835,1.56372 2.950109,1.64709 3.241146,1.65493 0.14552,0.004 0.897184,-1.45098 1.670363,-3.23312 z m 28.429455,1.31169 c 0.373851,-0.90932 0.750446,-1.28825 1.896441,-1.90817 0.952786,-0.5154 1.568233,-1.06349 1.844339,-1.6425 0.456033,-0.95631 0.863018,-1.09196 1.335908,-0.44524 0.172447,0.23584 0.830669,0.47692 1.484376,0.54367 1.579295,0.16127 2.773407,-0.56568 2.961658,-1.80299 0.07399,-0.486315 0.09847,-0.924465 0.0544,-0.973655 -0.04407,-0.0492 -0.416911,0.148 -0.828534,0.4382 -0.95639,0.674265 -4.211413,0.978035 -4.428146,0.413225 -0.07706,-0.200805 -0.471266,-0.366925 -0.876017,-0.369155 -0.948317,-0.005 -1.524336,-0.37021 -1.25979,-0.79825 0.112953,-0.18276 0.19517,-0.69095 0.182708,-1.12931 -0.01246,-0.43836 0.26756,-1.36974 0.622276,-2.06974 0.354719,-0.7 0.64494,-1.55615 0.64494,-1.90255 0,-1.01458 0.833726,-1.19876 3.51199,-0.77584 2.214565,0.3497 2.373773,0.34312 2.719033,-0.11243 0.201702,-0.26613 0.370517,-0.56148 0.375147,-0.65633 0.0046,-0.0949 -0.735727,-0.25018 -1.645232,-0.34518 -0.909505,-0.095 -3.060367,-0.34705 -4.779695,-0.56013 -1.719326,-0.213081 -3.229568,-0.323439 -3.356094,-0.245241 -0.440053,0.271971 -3.628176,9.067256 -4.736645,13.067336 l -0.51217,1.84823 1.367562,0.24991 c 2.690379,0.49165 2.90162,0.44078 3.421547,-0.82386 z m 41.56989,0.58992 c 0.44053,-0.46409 1.16174,-3.76788 1.03264,-4.73043 -0.18271,-1.36216 -0.57709,-1.549015 -1.9565,-0.92699 -0.92066,0.41517 -1.18404,0.43321 -2.0028,0.13714 -1.0683,-0.38631 -1.52449,-0.0629 -1.28038,0.90759 0.0732,0.29104 0.27349,1.48584 0.44509,2.6551 l 0.312,2.12592 1.67051,-0.0268 c 0.91878,-0.0147 1.71953,-0.0784 1.77944,-0.14154 z m -1.79581,-3.91253 c -0.0768,-0.12425 0.15992,-0.36238 0.52601,-0.52918 0.90211,-0.41103 0.96896,-0.38745 0.64071,0.2259 -0.29047,0.54274 -0.91792,0.70584 -1.16672,0.30328 z m -43.960643,0.29149 c 0.573331,-1.8551 1.720715,-5.197515 2.549742,-7.427595 0.964853,-2.59545 1.399074,-4.088906 1.206537,-4.149765 -0.658939,-0.208285 -7.486433,-1.513393 -8.098534,-1.548072 -0.554646,-0.03142 -0.907314,0.364887 -2.321483,2.608777 -1.550183,2.45971 -5.888059,10.762025 -5.888059,11.269225 0,0.29907 2.22281,0.93085 6.456522,1.83508 5.412809,1.15608 4.866582,1.38797 6.095275,-2.58765 z m 59.912703,2.82547 c -0.40132,-0.24803 -0.83458,-0.0469 -0.62598,0.29067 0.0798,0.12911 0.32985,0.16385 0.55567,0.0772 0.32072,-0.12307 0.33611,-0.20359 0.0703,-0.36786 z m -32.64468,-2.11409 c 0,-2.21342 -0.003,-2.22339 -0.84971,-2.7561 -0.9714,-0.611205 -1.09607,-0.931505 -0.36256,-0.931505 1.07834,0 1.34456,-0.28797 1.34456,-1.45439 0,-1.09406 -0.0546,-1.16846 -1.58032,-2.15451 -0.87178,-0.5634 -1.78883,-1.40754 -2.04537,-1.88273 -0.62869,-1.16456 -1.2074,-1.28422 -2.533964,-0.52392 -0.844264,0.48388 -1.386901,0.6114 -2.226271,0.52317 -1.0593,-0.11136 -1.12756,-0.0744 -1.497304,0.81052 -0.254764,0.60973 -0.79802,1.16783 -1.586666,1.63001 -1.107753,0.64918 -1.222018,0.81767 -1.497481,2.20806 -0.164021,0.82789 -0.357611,1.713715 -0.430202,1.968535 -0.111728,0.39218 -0.03426,0.42613 0.504764,0.22119 0.507701,-0.19303 6.84953,-0.4213 8.680254,-0.31243 0.57638,0.0343 0.48218,2.23332 -0.12438,2.90356 -0.41685,0.46063 -0.40524,0.51333 0.20063,0.91031 0.68009,0.44561 3.29151,1.23092 3.73944,1.12452 0.15038,-0.0357 0.26458,-1.02161 0.26458,-2.28429 z m -5.486307,-5.738125 c -0.12807,-1.05685 0.22264,-1.54041 0.781077,-1.07695 0.42767,0.35493 0.44002,1.33372 0.0221,1.75163 -0.513267,0.51327 -0.675757,0.37678 -0.803177,-0.67468 z m 0.517047,-2.25983 c -0.0919,-0.23936 -0.0452,-0.51047 0.10363,-0.60247 0.38208,-0.23614 0.46325,-0.0637 0.24847,0.52785 -0.16272,0.44817 -0.20529,0.45719 -0.3521,0.0746 z m -52.066905,5.221125 1.701324,-3.568935 -1.027416,-1.05217 c -0.565079,-0.5787 -1.104472,-1.05217 -1.198652,-1.05217 -0.182496,0 -2.967382,5.793625 -3.28762,6.839505 -0.150154,0.49039 -0.0061,0.81191 0.6815,1.52136 0.479538,0.49476 0.997359,0.89548 1.150714,0.89048 0.153354,-0.005 1.044422,-1.61513 1.98015,-3.57807 z m 18.009813,-0.01 c 1.400437,-2.991505 3.336274,-6.494015 5.244346,-9.488589 0.645141,-1.012502 1.068612,-1.877684 0.941043,-1.922623 -3.638576,-1.281788 -6.432182,-2.240537 -6.851091,-2.351252 -0.433502,-0.114573 -0.939145,0.396653 -2.692551,2.722279 -2.842064,3.76956 -6.695592,9.97038 -6.695592,10.774055 0,0.26467 7.519145,2.99121 8.405639,3.048 0.184715,0.0118 0.926407,-1.24001 1.648206,-2.78187 z m -9.424462,-2.558935 c 1.375482,-2.56496 3.489067,-5.79828 5.88353,-9.000505 1.085361,-1.451499 1.939201,-2.667066 1.897423,-2.701261 -0.04178,-0.0342 -0.373617,-0.21431 -0.737419,-0.400255 -0.363802,-0.185944 -1.297065,-0.756419 -2.073918,-1.267722 l -1.41246,-0.929641 -1.028474,1.165737 c -2.203097,2.497128 -5.28791,6.581459 -6.958176,9.212707 -1.407751,2.2177 -1.687826,2.82904 -1.435421,3.13317 0.378815,0.45644 4.187439,2.71233 4.568542,2.706 0.148563,-0.002 0.731931,-0.86568 1.296373,-1.91823 z m -4.850363,-4.09656 c 2.038812,-3.184635 3.856722,-5.615521 6.36412,-8.51002 l 1.928449,-2.226169 -0.911315,0.170976 c -0.799319,0.149964 -0.854412,0.12732 -0.448294,-0.184249 0.444903,-0.341326 0.638075,-0.958347 0.300031,-0.958347 -0.08964,0 -0.714722,0.403365 -1.389062,0.896366 -0.674341,0.493001 -1.457959,0.939915 -1.741376,0.993141 -0.75673,0.142116 -7.819073,9.394462 -7.819073,10.243742 0,0.40771 1.522697,2.15425 1.878152,2.15425 0.102765,0 0.930031,-1.16086 1.838368,-2.57969 z m 67.984547,1.65487 c 0.1806,-0.21761 0.76315,-0.52593 1.29456,-0.68514 0.7969,-0.23876 1.22273,-0.19931 2.43037,0.22514 2.31878,0.81499 3.89626,0.33666 3.5422,-1.07407 -0.12407,-0.4943 -0.60286,-0.85626 -1.92963,-1.45876 -1.57256,-0.71412 -1.90859,-0.77662 -3.08753,-0.57428 -0.72761,0.12488 -2.00753,0.23415 -2.84427,0.24283 -1.71018,0.0177 -1.67537,-0.0456 -1.22025,2.2206 0.25842,1.28676 0.38512,1.49934 0.89365,1.49934 0.32589,0 0.7403,-0.17805 0.9209,-0.39566 z m -14.60201,-1.52255 c -0.079,-1.0915 -0.11046,-1.12689 -1.07355,-1.2066 -1.04898,-0.0868 -1.31937,0.28527 -0.51869,0.71379 0.26042,0.13937 0.63772,0.56028 0.83846,0.93535 0.54005,1.0091 0.84582,0.82959 0.75378,-0.44254 z m -1.07906,-1.94579 c -0.0879,-0.0879 -0.31612,-0.0973 -0.50712,-0.0209 -0.21107,0.0845 -0.14837,0.14716 0.15985,0.15985 0.27892,0.0115 0.43519,-0.051 0.34727,-0.13896 z M 92.581991,91.10954 c -0.157311,-0.293939 -0.28602,-0.765942 -0.28602,-1.048896 0,-0.32359 -0.298191,-0.637974 -0.803722,-0.847373 -1.080691,-0.447638 -0.856287,-0.903787 0.493556,-1.003271 0.754854,-0.05563 1.103916,-0.203636 1.103916,-0.468061 0,-0.280366 0.181893,-0.34105 0.661458,-0.220686 0.574152,0.144103 0.661459,0.07823 0.661459,-0.499036 0,-0.652195 -0.03197,-0.662736 -1.653646,-0.545185 l -1.653646,0.119867 0.926042,-0.534384 c 0.879387,-0.507465 0.896051,-0.542981 0.330729,-0.704984 -0.80087,-0.229503 -0.749356,-0.544798 0.166375,-1.018341 1.149879,-0.594626 1.538491,-2.000955 0.552926,-2.000955 -0.799147,0 -0.889299,-0.611265 -0.269367,-1.826432 0.361591,-0.708778 0.731436,-1.083985 1.068494,-1.083985 0.349506,0 0.466447,0.127788 0.363191,0.396875 -0.09644,0.251312 0.0037,0.396875 0.272886,0.396875 0.578056,0 0.534172,0.24028 -0.152683,0.835986 l -0.577866,0.50118 0.577866,0.404753 c 0.325985,0.22833 0.577865,0.68653 0.577865,1.051209 0,1.228322 0.403125,0.639108 0.960631,-1.404066 0.30772,-1.127786 0.64502,-2.253895 0.74953,-2.502463 0.22606,-0.537621 0.18394,-0.548366 -4.223702,-1.077668 -2.846004,-0.341769 -3.202417,-0.338888 -3.439584,0.0278 -0.797774,1.233466 -4.024519,7.421007 -5.049062,9.681984 -0.857359,1.89203 -1.10068,2.678517 -0.872339,2.81964 0.423629,0.261816 9.429639,1.318172 9.71315,1.139302 0.04817,-0.0304 -0.04113,-0.29575 -0.198437,-0.589688 z m -4.25477,-6.5092 c 0,-0.21105 0.165322,-0.478941 0.367382,-0.595312 0.202059,-0.116372 0.410419,-0.439844 0.463021,-0.718827 0.126127,-0.668947 2.241917,-1.422636 2.698477,-0.961254 0.234048,0.236521 0.205185,0.36864 -0.120745,0.552662 -0.23558,0.13301 -0.572749,0.590508 -0.749268,1.016662 -0.317699,0.766988 -0.910821,1.079189 -2.063555,1.086184 -0.345373,0.0021 -0.595312,-0.157493 -0.595312,-0.380115 z m 31.377149,6.523826 c 0.25159,-0.344069 0.44035,-0.37348 0.93917,-0.146333 1.26196,0.574652 3.41967,-0.261514 2.65306,-1.028126 -0.22841,-0.228412 -0.54999,-0.167224 -1.29847,0.24706 -0.85861,0.475234 -1.21109,0.520417 -2.57342,0.329875 -1.74521,-0.244097 -2.28724,-0.02331 -2.06155,0.839705 0.12135,0.464058 0.27723,0.516568 1.08403,0.365218 0.51827,-0.0972 1.084,-0.37056 1.25718,-0.607399 z M 83.655647,87.265149 c 0.846143,-1.801342 2.301714,-4.683867 3.234603,-6.40561 0.932892,-1.721744 1.608082,-3.207155 1.500423,-3.300914 -0.107659,-0.09376 -1.305671,-0.379066 -2.662248,-0.634016 l -2.466504,-0.463546 -0.672992,0.623481 c -1.905968,1.765755 -9.078375,10.847776 -9.078375,11.495444 0,0.166976 0.386953,0.371923 0.859896,0.455438 0.472942,0.08352 1.990989,0.390845 3.373437,0.682959 2.269123,0.479467 3.317976,0.680275 4.104892,0.785902 0.147637,0.01982 0.960728,-1.437796 1.806868,-3.239138 z m -9.455435,-0.627435 c 2.047269,-2.889727 5.020183,-6.584699 7.710863,-9.583675 0.327422,-0.364937 0.594405,-0.72427 0.593299,-0.798518 -0.0011,-0.07425 -0.923843,-0.444889 -2.050521,-0.823649 -1.12668,-0.37876 -2.243672,-0.773389 -2.482207,-0.876952 -0.998802,-0.433645 -13.021715,10.952553 -12.31318,11.661088 0.285666,0.285668 6.116755,2.204323 6.704384,2.206006 0.405812,0.0011 0.939834,-0.517438 1.837362,-1.7843 z m 22.742613,-0.594088 c 0.15468,-7.93e-4 0.61901,-0.353794 1.031857,-0.784711 0.510857,-0.533223 1.118264,-0.838619 1.901571,-0.956084 l 1.150957,-0.172597 v -1.415857 c 0,-1.129028 0.10367,-1.471344 0.51177,-1.68975 0.7307,-0.391061 0.81114,-0.352627 0.81114,0.387566 0,0.363802 -0.11906,0.661458 -0.26458,0.661458 -0.14552,0 -0.26458,0.238125 -0.26458,0.529167 0,0.356222 0.17639,0.529167 0.5397,0.529167 0.29684,0 0.99648,0.233023 1.55474,0.51783 1.15413,0.588792 1.34514,0.504619 1.34514,-0.592772 0,-0.68986 -0.0768,-0.765814 -0.66146,-0.654051 -0.56696,0.10838 -0.66317,0.02774 -0.67341,-0.564469 -0.0121,-0.702269 -1.2771,-3.358678 -1.29901,-2.727933 -0.0152,0.438446 -1.70416,1.155721 -2.2385,0.950673 -0.22223,-0.08528 -0.37772,-0.411515 -0.34552,-0.724975 0.0535,-0.521306 -0.0652,-0.569929 -1.391471,-0.569929 h -1.450004 l -0.85461,2.901284 c -0.53941,1.831232 -0.7559,2.962289 -0.58697,3.066691 0.28722,0.177511 -0.213837,1.572651 -0.564807,1.572651 -0.235612,0 -0.510622,0.977072 -0.326763,1.160933 0.07328,0.07328 0.506817,-0.216929 0.96341,-0.644914 0.4566,-0.427985 0.95672,-0.778706 1.1114,-0.779378 z m 6.112855,-3.352614 c -0.30444,-0.304438 -0.19268,-0.617361 0.22049,-0.617361 0.21828,0 0.39687,0.178594 0.39687,0.396875 0,0.413167 -0.31292,0.524925 -0.61736,0.220486 z m -35.498397,0.288719 c 2.420716,-2.61046 5.611699,-5.60284 8.309232,-7.792074 l 1.149464,-0.93287 -1.521635,-1.010308 -1.521632,-1.010308 -2.240851,1.537835 c -1.232467,0.845809 -2.37825,1.72808 -2.546184,1.960601 -0.167931,0.232522 -0.521237,0.503382 -0.785122,0.601912 -0.263885,0.09853 -0.40868,0.294205 -0.321765,0.434834 0.306245,0.495516 -0.533601,1.360293 -1.579695,1.626588 -0.582083,0.148177 -1.517964,0.679091 -2.079735,1.179811 -1.223417,1.090459 -1.038556,1.155563 0.601281,0.211759 l 1.213871,-0.698639 -0.694595,0.764785 c -0.382027,0.420632 -0.636558,0.923928 -0.565624,1.118434 0.126195,0.346037 -1.414308,2.159894 -1.834392,2.159894 -0.116974,0 -0.212681,-0.350161 -0.212681,-0.778136 0,-1.135123 -0.333616,-1.168605 -1.336288,-0.13411 -0.884335,0.912401 -0.88711,0.923081 -0.372653,1.434104 0.484856,0.481621 3.238377,2.108606 3.586516,2.119182 0.08678,0.0026 1.3254,-1.254346 2.752488,-2.793294 z m 40.030047,0.289739 c 0.47937,-0.0065 0.97207,-0.174381 1.0949,-0.373114 0.12902,-0.208766 0.36381,-0.274499 0.55607,-0.15568 0.25061,0.154889 0.28793,0.02708 0.15118,-0.51777 -0.0999,-0.397883 -0.10923,-0.951333 -0.0208,-1.22989 0.12745,-0.401562 0.26307,-0.451704 0.65476,-0.242082 0.74567,0.399073 1.05796,0.320915 1.05796,-0.264783 0,-0.291041 -0.11907,-0.529166 -0.26459,-0.529166 -0.14552,0 -0.26458,-0.178594 -0.26458,-0.396875 0,-0.218282 0.17157,-0.396875 0.38126,-0.396875 0.20969,0 0.43668,-0.08967 0.50442,-0.199276 0.0677,-0.109601 -0.83989,-0.155541 -2.01695,-0.102088 -2.38657,0.10838 -2.93223,0.458713 -3.25561,2.090223 -0.0941,0.47455 -0.27659,0.928062 -0.40561,1.007803 -0.12903,0.07974 -0.23459,0.503168 -0.23459,0.940949 0,0.71062 0.0638,0.773686 0.59531,0.588185 0.32742,-0.114279 0.98752,-0.213082 1.46689,-0.219561 z M 63.942961,78.478082 c -0.448721,-0.44872 -1.688871,-0.291005 -1.399057,0.177925 0.08445,0.136634 -0.271014,0.947308 -0.789908,1.801499 -0.518893,0.854191 -0.943442,1.65546 -0.943442,1.780597 0,0.125138 0.800994,-0.573471 1.779987,-1.552464 1.639002,-1.639002 1.746122,-1.813854 1.35242,-2.207557 z m 35.981062,-0.86094 c 0.0619,-0.434954 0.448627,-0.783365 1.322907,-1.19176 0.67952,-0.317412 1.86056,-1.241734 2.62455,-2.054049 l 1.38906,-1.476937 v -2.124174 -2.124175 l -0.82682,-0.165365 c -0.45476,-0.09095 -1.44111,-0.165364 -2.19189,-0.165364 h -1.36507 l -0.48151,1.25677 c -1.170904,3.056106 -2.807615,7.796091 -2.807615,8.13098 0,0.343376 0.954754,0.632308 1.852081,0.560485 0.218277,-0.01747 0.436217,-0.308356 0.484307,-0.646411 z m 9.093597,0.434842 c -0.56255,-0.562553 -0.35024,-1.607904 0.506,-2.491313 0.89608,-0.924524 0.83373,-1.42452 -0.17765,-1.42452 -0.4681,0 -0.64585,0.144723 -0.64585,0.525848 0,0.32575 -0.40272,0.780073 -1.05833,1.193944 -0.8267,0.521871 -1.05833,0.831446 -1.05833,1.41443 0,0.994872 0.14721,1.099111 1.55222,1.099111 0.9329,0 1.12889,-0.07055 0.88194,-0.3175 z M 97.567025,76.186672 c 0.336987,-1.055026 1.074794,-3.154766 1.639561,-4.666088 0.564777,-1.511322 1.026874,-2.84031 1.026874,-2.953306 0,-0.112997 -0.476247,-0.275444 -1.058334,-0.360996 -0.582077,-0.08555 -1.520181,-0.223113 -2.084671,-0.305692 l -1.02634,-0.150144 -1.884075,2.50669 c -1.036238,1.378679 -1.884069,2.674929 -1.884069,2.880555 0,0.205626 -0.286483,0.622959 -0.636627,0.927405 -0.649372,0.564624 -2.153476,2.926761 -1.975205,3.101991 0.110805,0.108917 5.55289,0.856398 6.594646,0.905788 0.61316,0.02907 0.7321,-0.145088 1.28824,-1.886203 z m -7.674997,-0.466996 c 0.449043,-0.72979 0.816443,-1.386041 0.816443,-1.458335 0,-0.07229 -0.471691,-0.05602 -1.0482,0.03617 -1.336553,0.213723 -2.044565,-0.01971 -1.618149,-0.533517 0.167015,-0.201242 0.269721,-0.527255 0.228237,-0.724473 -0.05873,-0.279186 0.310687,-0.341048 1.668471,-0.279397 l 1.7439,0.07918 1.919843,-2.554181 1.919844,-2.55418 -1.150202,0.199226 c -0.632611,0.109574 -1.300756,0.20137 -1.484765,0.203991 -0.202782,0.0029 -0.274217,0.194897 -0.181359,0.487466 0.265287,0.835848 -0.148225,1.10632 -0.781637,0.511259 -0.545061,-0.512056 -0.617681,-0.518943 -1.196571,-0.113472 l -0.616294,0.431668 0.610717,0.326845 c 0.582782,0.311896 0.557681,0.335803 -0.548841,0.522749 -1.002906,0.16944 -1.51838,0.546311 -3.815689,2.789705 -1.460873,1.42659 -2.567297,2.682637 -2.458717,2.791216 0.200504,0.200505 3.930486,1.099851 4.736198,1.141957 0.257307,0.01345 0.779671,-0.528499 1.256771,-1.303881 z m -4.403561,-2.316363 c 1.270272,-1.276186 2.309587,-2.384278 2.309587,-2.462426 0,-0.07815 -1.279922,0.04626 -2.844271,0.276468 -2.550813,0.375371 -3.04093,0.540601 -4.750342,1.601459 -1.048338,0.650597 -1.816608,1.272367 -1.707264,1.38171 0.251185,0.251186 3.741251,1.47705 4.28031,1.503433 0.221316,0.01083 1.441707,-1.024458 2.71198,-2.300644 z m 31.149163,0.86513 c 0,-0.852547 0.063,-0.926042 0.79375,-0.926042 0.94193,0 0.9604,-0.08115 0.24657,-1.083635 -0.4569,-0.641653 -0.47873,-0.768448 -0.1323,-0.768448 0.58434,0 0.53217,-0.166212 -0.4886,-1.556788 -1.68929,-2.301275 -1.63721,-2.280064 -4.65448,-1.895546 -1.45426,0.18533 -2.64411,0.379893 -2.64411,0.432362 0,0.05247 0.25978,0.630102 0.57728,1.283627 0.64101,1.319386 1.14016,1.595153 4.38597,2.42315 1.05631,0.269459 1.8776,0.612114 1.82511,0.761456 -0.0558,0.158859 -0.79787,0.239088 -1.78825,0.193347 l -1.69282,-0.07818 1.5875,1.049558 c 0.87313,0.577256 1.6768,1.058923 1.78594,1.070371 0.10914,0.01145 0.19844,-0.395905 0.19844,-0.905228 z M 71.9892,72.995967 c 0.836744,-0.579235 1.521354,-1.140387 1.521354,-1.247005 0,-0.507068 -0.752729,-0.79031 -1.423025,-0.535464 -0.970105,0.368834 -0.866044,0.641893 0.166254,0.436251 l 0.859896,-0.171297 -1.051764,0.865828 c -2.729002,2.246559 -2.758501,2.510917 -0.07272,0.651687 z m -5.272932,-0.01009 c 0.8992,-0.632652 2.498114,-1.610207 3.55314,-2.172344 1.055026,-0.562137 1.918229,-1.175606 1.918229,-1.363264 0,-0.466604 -0.182412,-0.433076 -1.291688,0.237419 -1.284335,0.77631 -6.116645,4.205907 -6.116645,4.34112 0,0.254268 0.397212,0.0404 1.936964,-1.042931 z M 78.36469,71.673064 c 2.064009,-2.064009 2.886837,-2.638133 4.406281,-3.074461 1.104574,-0.317192 5.36974,-2.93703 5.146879,-3.161421 -0.440256,-0.443274 -13.358408,5.886641 -13.345494,6.539313 0.0039,0.197739 1.606222,1.324113 1.919661,1.349462 0.111834,0.009 0.954537,-0.734758 1.872673,-1.652893 z m 28.09375,0.251669 c 0.28704,-0.197635 0.95988,-0.439561 1.4952,-0.537615 0.53532,-0.09805 1.2262,-0.383057 1.53529,-0.633341 0.53741,-0.435169 0.54386,-0.498417 0.14762,-1.446761 -0.39649,-0.948934 -0.4684,-0.991543 -1.66758,-0.988086 -2.36298,0.0068 -2.44385,0.07776 -2.44385,2.143913 0,1.001674 0.0926,1.821225 0.20571,1.821225 0.11315,0 0.44057,-0.161701 0.72761,-0.359335 z m 14.00413,-1.216374 c 0.86748,-0.888375 0.97026,-1.108788 0.68011,-1.458401 -0.70052,-0.844078 -2.9412,-2.305097 -3.31513,-2.161607 -0.43372,0.166434 -0.24873,0.956916 0.22745,0.971898 0.16633,0.0052 0.65961,0.313821 1.09617,0.685749 l 0.79375,0.676234 -1.05773,-0.180867 c -1.03145,-0.176374 -1.44354,-0.486363 -1.45176,-1.092088 -0.007,-0.502167 -0.7378,-0.952216 -1.16093,-0.714755 -0.31491,0.17673 -0.0992,0.615826 1.11063,2.260423 0.8258,1.122598 1.62612,2.045332 1.77849,2.050521 0.15237,0.0052 0.7369,-0.461509 1.29895,-1.037107 z M 76.34544,70.25871 c 1.132949,-0.677384 2.178968,-1.349694 2.324489,-1.494024 0.175916,-0.174474 0.161322,-0.204522 -0.04355,-0.08966 -0.169471,0.09502 -0.350914,0.04441 -0.403204,-0.112461 -0.05609,-0.168265 -0.384487,-0.05756 -0.800883,0.269974 -1.408991,1.108313 -3.496241,1.623579 -2.191948,0.541113 0.671927,-0.55765 0.439168,-0.82921 -0.357585,-0.417193 -1.064699,0.550577 -1.758323,1.659693 -1.347512,2.154692 0.448037,0.539853 0.536006,0.513263 2.820191,-0.85244 z m 47.96511,-0.484865 c 0,-0.07093 -0.47625,-0.429616 -1.05834,-0.797069 -0.64963,-0.410094 -1.05833,-0.86909 -1.05833,-1.188567 0,-0.650759 -1.79647,-1.62375 -2.60677,-1.411854 -0.81567,0.213303 -0.72093,0.428969 0.68854,1.567389 0.69122,0.558299 1.32645,1.113473 1.41161,1.233721 0.28534,0.402881 2.62329,0.934393 2.62329,0.59638 z M 74.965762,68.346849 c 1.018646,-0.479456 3.161771,-1.40176 4.7625,-2.049564 1.60073,-0.647804 3.092405,-1.415077 3.314833,-1.705051 0.22243,-0.289975 1.055867,-0.696335 1.852083,-0.903024 1.262346,-0.327689 1.3824,-0.326953 0.937816,0.0058 -0.748853,0.56041 -0.442,0.633116 0.941734,0.223136 0.693513,-0.205477 1.296659,-0.564627 1.389232,-0.827231 0.08998,-0.255251 0.229767,-0.603289 0.310636,-0.773417 0.106712,-0.224496 -0.165428,-0.21267 -0.992356,0.04312 -2.353176,0.727899 -4.850488,1.777291 -5.04353,2.119335 -0.245735,0.435404 -2.73041,1.290229 -3.095104,1.064835 -0.145338,-0.08982 -0.5945,0.01579 -0.998133,0.234702 -0.403632,0.21891 -0.618088,0.402786 -0.476567,0.408612 0.141517,0.0058 -0.01283,0.199806 -0.343001,0.431067 -0.330171,0.23126 -0.788212,0.348369 -1.017871,0.260241 -0.553749,-0.212495 -3.79123,1.608452 -3.79123,2.132408 0,0.223286 0.0893,0.361163 0.198437,0.306394 0.109141,-0.05477 1.031875,-0.491863 2.050521,-0.971319 z m 11.44323,-2.928943 c 0.934998,-0.343032 1.653646,-0.765147 1.653646,-0.971306 0,-0.200539 -0.108456,-0.364616 -0.241012,-0.364616 -0.625729,0 -3.496916,1.045723 -4.166489,1.51749 -0.413531,0.291364 -1.049531,0.618589 -1.413333,0.727166 -0.689792,0.205871 -1.852083,1.140014 -1.852083,1.488537 0,0.110752 0.982265,-0.24682 2.182812,-0.794606 1.200547,-0.547785 2.926953,-1.268985 3.836459,-1.602665 z m 27.446468,1.990933 c 1.99323,-0.33238 2.45621,-0.504867 2.86634,-1.067882 0.53122,-0.729256 1.32222,-0.932282 1.06984,-0.274598 -0.0894,0.233072 -0.004,0.395808 0.20674,0.39429 0.4969,-0.0036 3.0352,-1.205882 3.23775,-1.533605 0.091,-0.147213 -0.21908,-0.591194 -0.68902,-0.986625 l -0.85445,-0.718965 1.11832,0.188938 c 1.26889,0.214378 1.43911,-0.06726 0.5444,-0.900805 -1.19791,-1.116034 -4.65367,-1.894752 -10.80317,-2.434382 -7.21494,-0.633125 -18.230781,0.461861 -20.562025,2.043886 -0.518681,0.351987 -0.837147,0.642624 -0.707699,0.64586 0.129447,0.0032 -0.04667,0.222771 -0.391369,0.487857 -0.536125,0.412296 -0.582332,0.564931 -0.319622,1.055813 0.248166,0.463702 0.404651,0.521638 0.815316,0.301857 0.296799,-0.158841 0.445495,-0.435399 0.357457,-0.664822 -0.08291,-0.216061 -0.04871,-0.408192 0.076,-0.426956 0.124712,-0.01876 0.524402,-0.08035 0.888204,-0.136846 0.363802,-0.0565 1.286536,-0.171701 2.050521,-0.256002 2.253107,-0.248614 1.668888,-0.699216 -0.661459,-0.510175 -1.926875,0.15631 -2.010634,0.141582 -1.389062,-0.244249 0.44246,-0.274649 1.187056,-0.391214 2.248958,-0.352071 0.873125,0.03218 1.797524,-0.06177 2.054217,-0.208784 0.683918,-0.391699 2.311068,-0.152221 2.132228,0.313814 -0.0781,0.203554 -0.30787,0.370097 -0.51059,0.370097 -0.20271,0 -0.36856,0.119063 -0.36856,0.264583 0,0.149858 0.7744,0.266341 1.785937,0.268635 1.250734,0.0028 1.666991,0.08091 1.389054,0.260532 -0.30624,0.197905 -0.31488,0.257406 -0.0378,0.260532 0.202797,0.0023 0.295527,0.169539 0.213097,0.38435 -0.0861,0.224305 0.038,0.418687 0.30242,0.473885 0.252247,0.05265 -0.27493,0.377559 -1.205284,0.742834 -0.909494,0.357085 -1.653634,0.73915 -1.653634,0.849031 0,0.109882 -0.12405,0.199785 -0.27565,0.199785 -0.15161,0 -0.51829,0.226055 -0.81485,0.502345 -0.536769,0.500074 -0.534025,0.503235 0.60637,0.699093 4.126225,0.708661 13.056725,0.713182 17.281115,0.0088 z m -8.55466,-0.640764 c -0.80021,-0.800212 -0.71117,-1.146116 0.27009,-1.049208 0.97143,0.09594 1.16771,0.431059 0.65952,1.126053 -0.34857,0.476689 -0.37856,0.47421 -0.92961,-0.07684 z m 1.01807,-1.363174 c 0,-0.145521 0.17157,-0.264584 0.38126,-0.264584 0.2097,0 0.45485,0.119063 0.54479,0.264584 0.0899,0.145521 -0.0816,0.264583 -0.38126,0.264583 -0.29963,0 -0.54479,-0.119062 -0.54479,-0.264583 z m 11.90626,-2.38125 c -0.34203,-0.221033 -0.33504,-0.257041 0.0505,-0.260532 0.24607,-0.0022 0.52099,0.115011 0.61093,0.260532 0.20695,0.334856 -0.14331,0.334856 -0.66146,0 z m 5.25236,3.734055 c 0.27186,-0.172276 0.1342,-0.396968 -0.57429,-0.93736 -0.81512,-0.621726 -1.00079,-0.667724 -1.48205,-0.36717 -0.73355,0.458111 -0.69997,0.574924 0.30971,1.077426 1.00516,0.500254 1.26274,0.533745 1.74663,0.227104 z m -0.0236,-3.734055 c -1.32098,-1.294884 -1.97465,-1.427423 -1.31387,-0.266402 0.40753,0.716048 1.25793,1.248205 2.08358,1.303847 0.17048,0.01149 -0.17589,-0.455362 -0.76971,-1.037445 z M 95.134731,62.599215 c -0.08792,-0.08792 -0.316125,-0.09732 -0.507119,-0.02089 -0.211066,0.08446 -0.148373,0.147157 0.159853,0.159853 0.278913,0.01149 0.435184,-0.05105 0.347266,-0.138965 z"
       id="path952"
       inkscape:connector-curvature="0"
       inkscape:export-filename="/home/lobo/Git/astrobook/figs/cover.png"
       inkscape:export-xdpi="96"
       inkscape:export-ydpi="96" />
    <path
       style="fill:none;fill-opacity:1;stroke:#000000;stroke-width:0.53604394;stroke-miterlimit:4;stroke-dasharray:none;stroke-dashoffset:0;stroke-opacity:1"
       id="path954"
       sodipodi:type="arc"
       sodipodi:cx="74.672417"
       sodipodi:cy="186.53865"
       sodipodi:rx="98.509811"
       sodipodi:ry="52.302849"
       sodipodi:start="4.7636222"
       sodipodi:end="3.4771293"
       sodipodi:open="true"
       d="m 79.717184,134.30443 a 98.509811,52.302849 0 0 1 89.885866,38.26375 98.509811,52.302849 0 0 1 -39.95893,57.37236 98.509811,52.302849 0 0 1 -115.148461,-1.99214 98.509811,52.302849 0 0 1 -32.83953,-58.63182"
       transform="matrix(0.60224309,-0.79831276,0.39766948,0.91752874,0,0)"
       inkscape:export-filename="/home/lobo/Git/astrobook/figs/cover.png"
       inkscape:export-xdpi="96"
       inkscape:export-ydpi="96" />
    <ellipse
       style="fill:#000000;fill-opacity:1;stroke:#000000;stroke-width:0.5;stroke-miterlimit:4;stroke-dasharray:none;stroke-dashoffset:0;stroke-opacity:1"
       id="path956"
       cx="165.55357"
       cy="20.510416"
       rx="2.2678571"
       ry="2.4568453"
       inkscape:export-filename="/home/lobo/Git/astrobook/figs/cover.png"
       inkscape:export-xdpi="96"
       inkscape:export-ydpi="96" />
  </g>
</svg>
