<?xml version="1.0" encoding="UTF-8" standalone="no"?>
<!-- Created with Inkscape (http://www.inkscape.org/) -->

<svg
   xmlns:dc="http://purl.org/dc/elements/1.1/"
   xmlns:cc="http://creativecommons.org/ns#"
   xmlns:rdf="http://www.w3.org/1999/02/22-rdf-syntax-ns#"
   xmlns:svg="http://www.w3.org/2000/svg"
   xmlns="http://www.w3.org/2000/svg"
   xmlns:sodipodi="http://sodipodi.sourceforge.net/DTD/sodipodi-0.dtd"
   xmlns:inkscape="http://www.inkscape.org/namespaces/inkscape"
   width="210mm"
   height="297mm"
   viewBox="0 0 210 297"
   version="1.1"
   id="svg8"
   inkscape:version="0.92.4 (f8dce91, 2019-08-02)"
   sodipodi:docname="sky_path.svg">
  <defs
     id="defs2" />
  <sodipodi:namedview
     id="base"
     pagecolor="#ffffff"
     bordercolor="#666666"
     borderopacity="1.0"
     inkscape:pageopacity="0.0"
     inkscape:pageshadow="2"
     inkscape:zoom="0.98994949"
     inkscape:cx="410.92111"
     inkscape:cy="595.13762"
     inkscape:document-units="mm"
     inkscape:current-layer="layer1"
     showgrid="false"
     inkscape:window-width="1366"
     inkscape:window-height="713"
     inkscape:window-x="0"
     inkscape:window-y="27"
     inkscape:window-maximized="1" />
  <metadata
     id="metadata5">
    <rdf:RDF>
      <cc:Work
         rdf:about="">
        <dc:format>image/svg+xml</dc:format>
        <dc:type
           rdf:resource="http://purl.org/dc/dcmitype/StillImage" />
        <dc:title></dc:title>
      </cc:Work>
    </rdf:RDF>
  </metadata>
  <g
     inkscape:label="Layer 1"
     inkscape:groupmode="layer"
     id="layer1">
    <path
       style="fill:#000000;stroke-width:0.26458332"
       d="m 23.959218,49.94479 c -7.71e-4,-9.28803 -0.07977,-34.41927 -0.175551,-55.8472103 l -0.174148,-38.9598977 54.216696,-0.01859 c 29.819185,-0.01022 69.248345,-0.07715 87.620345,-0.148736 18.37201,-0.07158 33.40492,-0.09298 33.40648,-0.04756 0.002,0.04543 0.0806,25.175014 0.17552,55.843534 l 0.17269,55.76093 -62.41875,0.007 c -34.33032,0.004 -73.759457,0.0724 -87.620317,0.15242 L 23.960621,66.8322 Z m 88.349152,16.07355 86.36337,-0.0203 -0.18606,-55.07592 c -0.10233,-30.29176 -0.24043,-55.163904 -0.30689,-55.27143 -0.0665,-0.107526 -11.40234,-0.16177 -25.19085,-0.120542 -13.78851,0.04123 -52.91958,0.08884 -86.957927,0.105805 l -61.8879,0.03085 0.175101,55.084637 c 0.128652,40.47264 0.254356,55.13363 0.47388,55.2693 0.164329,0.10156 0.491182,0.14711 0.726341,0.10122 0.235159,-0.0459 39.291077,-0.0925 86.790935,-0.10367 z M 33.502392,63.6506 c -0.01354,-0.50661 -0.08806,-0.56855 -0.386258,-0.32107 -0.300729,0.24959 -0.362275,0.18179 -0.330729,-0.36429 0.02132,-0.36901 0.146508,-0.67102 0.278203,-0.67112 0.131694,-1.1e-4 0.01579,-0.26808 -0.257564,-0.5955 -0.273354,-0.32743 -0.327526,-0.44649 -0.120381,-0.26459 0.54013,0.47431 0.747541,0.41179 0.877816,-0.26458 l 0.114663,-0.59531 0.03603,0.61314 c 0.02996,0.50984 0.135984,0.58142 0.629269,0.42485 0.527353,-0.16737 0.553139,-0.13997 0.232187,0.24676 -0.305183,0.36772 -0.304862,0.43567 0.0021,0.43909 0.295846,0.003 0.292745,0.0486 -0.01674,0.24442 -0.330093,0.20887 -0.330093,0.30367 0,0.72355 0.347288,0.44175 0.340383,0.45224 -0.08051,0.12226 -0.40449,-0.31712 -0.490777,-0.285 -0.710833,0.26458 L 33.519197,64.2783 Z M 193.0654,61.30174 c -0.039,-0.64468 -0.27802,-0.74643 -0.77686,-0.33073 -0.23091,0.19243 -0.24534,0.17799 -0.0529,-0.0529 0.40468,-0.48561 0.32082,-0.69319 -0.33073,-0.81869 l -0.59531,-0.11466 0.60462,-0.036 c 0.5389,-0.0321 0.57133,-0.10075 0.29835,-0.63134 -0.25277,-0.4913 -0.24515,-0.53753 0.0436,-0.26459 0.47772,0.45157 0.71233,0.41528 0.85542,-0.13229 0.11524,-0.44097 0.12246,-0.44097 0.15169,0 0.0345,0.52121 0.30174,0.58993 0.77153,0.19844 0.23091,-0.19243 0.24534,-0.17799 0.0529,0.0529 -0.42262,0.50714 -0.31421,0.69817 0.46302,0.81591 l 0.7276,0.11023 -0.7276,0.0396 c -0.76887,0.0419 -0.89764,0.25894 -0.46302,0.78047 0.19242,0.23091 0.17799,0.24535 -0.0529,0.0529 -0.48561,-0.40468 -0.6932,-0.32082 -0.81869,0.33073 l -0.11467,0.59531 z M 155.75381,60.3757 c -0.0345,-0.52121 -0.30173,-0.58993 -0.77152,-0.19844 -0.23091,0.19243 -0.24534,0.17799 -0.0529,-0.0529 0.40468,-0.48561 0.32082,-0.69319 -0.33073,-0.81869 l -0.59531,-0.11466 0.59531,-0.036 c 0.71655,-0.0434 0.7411,-0.21807 0.1323,-0.94124 -0.45612,-0.5418 -0.45483,-0.5431 0.087,-0.087 0.71499,0.60192 0.84503,0.58442 0.98307,-0.13229 l 0.11466,-0.59531 0.036,0.59531 c 0.039,0.64468 0.27802,0.74643 0.77686,0.33073 0.23091,-0.19243 0.24534,-0.17799 0.0529,0.0529 -0.38218,0.45862 -0.32745,0.68561 0.19843,0.82304 0.44098,0.11524 0.44098,0.12246 0,0.15169 -0.52121,0.0345 -0.58993,0.30173 -0.19843,0.77152 0.19242,0.23091 0.17799,0.24535 -0.0529,0.0529 -0.45862,-0.38218 -0.6856,-0.32745 -0.82303,0.19844 -0.11524,0.44097 -0.12246,0.44097 -0.1517,0 z m -33.1036,-1.0823 c -2.54468,-0.75777 -4.3237,-1.73984 -6.5568,-3.61956 -3.64078,-3.06463 -5.47522,-7.19771 -6.15619,-13.87018 -1.05842,-10.37096 2.05454,-18.47233 8.91054,-23.18938 1.88856,-1.29937 5.59428,-3.0419 8.43266,-3.96528 1.4552,-0.47341 2.69186,-0.89714 2.74812,-0.94162 0.0562,-0.0445 -0.66656,-1.48344 -1.60626,-3.19768 -6.86217,-12.5183403 -13.80301,-20.57869 -24.77613,-28.7724 -6.638264,-4.95684 -12.517931,-8.41043 -17.82071,-10.467511 -6.566125,-2.547163 -23.670249,-5.380248 -38.316902,-6.346716 -2.255573,-0.148835 -4.487995,-0.341092 -4.960938,-0.427238 -1.342047,-0.244451 -1.011176,-0.662434 0.396875,-0.501365 0.691224,0.07907 3.340365,0.327879 5.886979,0.552907 16.778078,1.482573 28.823663,3.356497 35.057291,5.453841 10.409141,3.502222 24.786545,13.530752 33.334605,23.2515617 4.1207,4.68603 6.57616,8.17819 10.3601,14.73416 1.40725,2.4381703 2.70654,4.6785903 2.88731,4.9787103 l 0.32868,0.54568 2.95288,-0.72603 c 4.38988,-1.07935 10.22048,-2.00031 17.34059,-2.73901 3.4925,-0.3623403 7.36204,-0.7635303 8.59896,-0.8915403 1.23693,-0.128 2.29857,-0.18984 2.35921,-0.1374 0.36646,0.3169 -1.08257,0.54175 -8.45665,1.3122603 -8.59137,0.8977 -12.12144,1.38025 -16.52443,2.25881 -2.29844,0.45863 -5.68353,1.27488 -5.88983,1.42023 -0.0379,0.0267 0.93096,2.121 2.15312,4.65392 4.72349,9.78947 6.7083,16.04097 6.97541,21.97029 0.45782,10.16261 -3.68868,16.90732 -11.58998,18.85231 -2.29469,0.56486 -3.67405,0.52127 -6.06851,-0.19177 z m 5.3217,-0.17699 c 1.91559,-0.35902 5.46843,-2.09006 6.86359,-3.34414 3.10067,-2.7871 5.00788,-8.01062 5.00906,-13.71897 0.001,-4.78392 -1.21272,-9.7311 -4.07189,-16.5973 -1.32955,-3.19287 -4.93033,-10.82861 -5.30696,-11.25386 -0.0341,-0.0384 -1.46276,0.41312 -3.17488,1.00349 -10.23234,3.52825 -15.0906,8.78997 -16.72031,18.10885 -0.81807,4.67783 -0.0998,11.79074 1.60962,15.94003 1.20886,2.93424 2.29958,4.3859 4.82599,6.42299 2.27542,1.8347 4.16118,2.79736 6.45338,3.2944 2.12174,0.46007 2.72549,0.47941 4.5124,0.14451 z m -0.52317,-11.04384 c -0.039,-0.64468 -0.27802,-0.74643 -0.77687,-0.33072 -0.23091,0.19242 -0.24534,0.17799 -0.0529,-0.0529 0.40467,-0.48562 0.32081,-0.6932 -0.33073,-0.81869 l -0.59531,-0.11467 0.59531,-0.036 c 0.66957,-0.0405 0.75223,-0.29335 0.26458,-0.80925 -0.2726,-0.28839 -0.22931,-0.29778 0.24625,-0.0534 0.50219,0.25804 0.59183,0.21937 0.69157,-0.29834 l 0.1146,-0.59481 0.036,0.59531 c 0.0434,0.71655 0.21806,0.7411 0.94124,0.13229 l 0.55,-0.46302 -0.51865,0.61147 c -0.44249,0.52168 -0.46191,0.64735 -0.13229,0.85584 0.27789,0.17577 0.29089,0.24552 0.0463,0.24843 -0.26694,0.003 -0.2742,0.13204 -0.0338,0.59937 0.25276,0.49129 0.24514,0.53752 -0.0436,0.26458 -0.50506,-0.47741 -0.7211,-0.41024 -0.85108,0.26458 l -0.11466,0.59532 z M 94.496236,58.12674 c -0.21448,-1.32635 -0.47085,-1.68603 -0.81029,-1.1368 -0.0858,0.13875 -0.52328,0.51386 -0.97228,0.83357 -0.738487,0.52585 -0.790544,0.53305 -0.545672,0.0755 0.148881,-0.27819 0.519852,-0.73129 0.824372,-1.00687 0.81295,-0.73572 0.68586,-0.94775 -0.570808,-0.95227 -0.823505,-0.003 -1.018252,-0.0727 -0.727605,-0.26053 0.218282,-0.14107 0.724297,-0.25831 1.124483,-0.26054 0.71655,-0.004 0.9687,-0.35298 0.47534,-0.65789 -0.13875,-0.0857 -0.52364,-0.53926 -0.855317,-1.00781 l -0.603046,-0.85189 1.091823,0.8599 c 0.6005,0.47294 1.16399,0.85989 1.25219,0.85989 0.0882,0 0.16036,-0.53578 0.16036,-1.19062 0,-0.65485 0.11906,-1.19063 0.26458,-1.19063 0.14552,0 0.26641,0.38695 0.26864,0.8599 0.005,0.99087 0.36493,1.73001 0.63233,1.29733 0.0953,-0.15428 0.54073,-0.5421 0.98974,-0.86181 0.73848,-0.52585 0.79054,-0.53305 0.54567,-0.0755 -0.14888,0.27819 -0.51704,0.72874 -0.81813,1.00123 -0.70892,0.64156 -0.4922,0.95386 0.66194,0.95386 0.54999,0 0.85964,0.10745 0.76252,0.26459 -0.0899,0.14552 -0.57321,0.26458 -1.07395,0.26458 -1.04775,0 -1.13837,0.24086 -0.35675,0.94822 0.30452,0.27558 0.67549,0.72868 0.82437,1.00687 0.24487,0.45754 0.19281,0.45034 -0.54567,-0.0755 -0.44901,-0.31971 -0.88653,-0.69482 -0.97228,-0.83357 -0.36376,-0.58858 -0.63192,-0.16168 -0.71406,1.1368 l -0.0879,1.38906 z M 70.32885,57.64289 c 0.601916,-0.71499 0.584417,-0.84503 -0.132292,-0.98307 -0.580538,-0.11182 -0.579519,-0.11556 0.04101,-0.15069 0.630682,-0.0357 0.631854,-0.0411 0.132291,-0.6037 -0.500157,-0.56331 -0.49962,-0.56535 0.06994,-0.2667 0.440002,0.23072 0.605126,0.22427 0.707462,-0.0276 0.101132,-0.24896 0.197628,-0.23653 0.398052,0.0512 0.226301,0.32493 0.334441,0.32677 0.747747,0.0128 0.413848,-0.31443 0.435727,-0.31388 0.152458,0.004 -0.474953,0.53262 -0.411472,0.74186 0.264584,0.87208 l 0.595312,0.11466 -0.595312,0.036 c -0.682337,0.0413 -0.707806,0.1209 -0.29223,0.91332 0.300889,0.57374 0.298974,0.57427 -0.264583,0.0739 -0.558229,-0.49565 -0.567801,-0.49565 -0.575712,0 -0.0077,0.48217 -0.02022,0.48311 -0.288544,0.0217 -0.271423,-0.46674 -0.298988,-0.46674 -0.85185,0 -0.566706,0.47842 -0.567587,0.47787 -0.108331,-0.0677 z m 34.10114,-22.00573 c -0.039,-0.64468 -0.27802,-0.74643 -0.77687,-0.33073 -0.23091,0.19242 -0.24534,0.17799 -0.0529,-0.0529 0.38218,-0.45861 0.32745,-0.6856 -0.19843,-0.82303 -0.44098,-0.11524 -0.44098,-0.12246 0,-0.15169 0.50541,-0.0335 0.61961,-0.43185 0.19843,-0.69215 -0.14552,-0.0899 -0.26458,-0.29401 -0.26458,-0.4535 0,-0.15949 0.22766,-0.0839 0.50592,0.16788 0.48044,0.43478 0.51221,0.43352 0.63077,-0.0251 0.11324,-0.43812 0.12769,-0.43997 0.15554,-0.02 0.0361,0.54526 0.31795,0.59164 0.80391,0.13229 0.28833,-0.27254 0.29801,-0.22975 0.055,0.24324 -0.22405,0.43613 -0.21595,0.60584 0.0338,0.70671 0.24011,0.097 0.23082,0.13838 -0.0345,0.15364 -0.30693,0.0177 -0.30725,0.0882 -0.002,0.45593 0.32009,0.38568 0.29601,0.41439 -0.21228,0.25307 -0.45907,-0.1457 -0.59647,-0.061 -0.6895,0.42486 l -0.11617,0.60682 -0.036,-0.59531 z M 36.440515,32.77084 c -0.06229,-1.1425 -0.262965,-1.23715 -1.205237,-0.56847 l -0.823615,0.58448 0.62054,-0.79073 0.620541,-0.79073 -1.017416,-0.3104 -1.017415,-0.31039 0.992187,-0.0204 c 0.545703,-0.0112 0.992188,-0.10312 0.992188,-0.20429 0,-0.10118 -0.327422,-0.53631 -0.727604,-0.96697 -0.775847,-0.83491 -0.330649,-0.71506 0.661458,0.17807 0.327422,0.29476 0.605103,0.42588 0.617069,0.29137 0.06284,-0.70636 0.291806,-1.83694 0.392388,-1.93752 0.06326,-0.0632 0.115022,0.32155 0.115022,0.85513 0,0.53358 0.07092,0.97014 0.157594,0.97014 0.08668,0 0.531552,-0.26628 0.988613,-0.59174 l 0.831019,-0.59174 -0.591738,0.83102 c -0.325456,0.45706 -0.591738,0.90194 -0.591738,0.98862 0,0.0867 0.446485,0.1714 0.992188,0.18828 0.545703,0.0169 0.754062,0.0811 0.46302,0.1426 -0.291041,0.0615 -0.813262,0.17313 -1.160491,0.24797 l -0.631325,0.13607 0.746972,0.77966 c 0.410835,0.42882 0.624087,0.77968 0.473895,0.77968 -0.150193,0 -0.488578,-0.23813 -0.751967,-0.52917 -0.682935,-0.75463 -0.880083,-0.66316 -0.997885,0.46302 -0.09224,0.88178 -0.108735,0.90141 -0.148263,0.17639 z M 141.71698,28.32872 c -0.014,-0.41329 -0.0836,-0.43998 -0.4197,-0.16101 -0.33461,0.27769 -0.37618,0.26468 -0.24516,-0.0768 0.10053,-0.26197 -0.0173,-0.45642 -0.32467,-0.53589 -0.39491,-0.10211 -0.37682,-0.13032 0.0997,-0.15544 0.32019,-0.0169 0.70353,-0.23905 0.85185,-0.49371 0.159,-0.27298 0.27299,-0.32378 0.27773,-0.12377 0.004,0.18659 0.27594,0.44694 0.60336,0.57854 0.46901,0.18852 0.49527,0.24285 0.12377,0.25606 -0.25935,0.009 -0.57923,0.28466 -0.71084,0.61208 -0.20215,0.50295 -0.24188,0.51845 -0.25605,0.0999 z m 31.50467,-7.24364 c -0.0405,-0.66958 -0.29335,-0.75224 -0.80925,-0.26459 -0.28839,0.2726 -0.29778,0.22932 -0.0534,-0.24625 0.25804,-0.50218 0.21937,-0.59183 -0.29834,-0.69157 -0.57942,-0.11163 -0.57835,-0.11553 0.0415,-0.15063 0.61929,-0.0351 0.62351,-0.0502 0.15743,-0.56519 -0.26339,-0.29105 -0.3484,-0.52917 -0.18891,-0.52917 0.15948,0 0.36356,0.11906 0.45349,0.26458 0.28691,0.46422 0.66058,0.28456 0.68784,-0.33073 0.0251,-0.56701 0.0351,-0.564 0.20973,0.0635 0.12481,0.4484 0.24812,0.55402 0.38612,0.33073 0.11151,-0.18043 0.3386,-0.32806 0.50464,-0.32806 0.21745,0 0.21308,0.0888 -0.0156,0.3175 -0.46651,0.46651 -0.3907,0.68993 0.27781,0.81869 l 0.59531,0.11466 -0.59531,0.036 c -0.66958,0.0405 -0.75224,0.29334 -0.26458,0.80925 0.27259,0.28838 0.22931,0.29777 -0.24625,0.0534 -0.50219,-0.25804 -0.59183,-0.21937 -0.69157,0.29834 l -0.1146,0.59481 -0.036,-0.59531 z M 70.634441,18.16427 c 0.495646,-0.5752 0.495646,-0.58506 0,-0.59297 -0.482166,-0.008 -0.483106,-0.0202 -0.0217,-0.28854 0.466736,-0.27143 0.466736,-0.29865 0,-0.84147 l -0.482333,-0.56097 0.727604,0.45874 0.727605,0.45874 0.03603,-0.73371 c 0.03064,-0.62391 0.05319,-0.64462 0.150694,-0.13839 0.128759,0.66851 0.352184,0.74432 0.818692,0.27781 0.228698,-0.2287 0.3175,-0.23306 0.3175,-0.0156 0,0.16604 -0.126188,0.37988 -0.280416,0.47519 -0.177212,0.10953 -0.10418,0.30693 0.198438,0.53637 0.460242,0.34895 0.459599,0.36339 -0.01656,0.37148 -0.431734,0.007 -0.448739,0.0658 -0.132292,0.45482 0.321292,0.39499 0.304602,0.42444 -0.144888,0.25563 -0.311502,-0.11699 -0.591389,-0.0594 -0.723554,0.1489 -0.157916,0.24887 -0.216622,0.21427 -0.219591,-0.12943 -0.0039,-0.44658 -0.03901,-0.44708 -0.731655,-0.0104 l -0.727604,0.45873 0.504029,-0.58493 z m 93.252109,-7.77731 c -0.86089,-0.29723 -1.13367,-1.1931903 -0.60768,-1.9959503 0.5298,-0.80857 1.57186,-0.78531 2.11739,0.0473 0.7921,1.2089 -0.14584,2.4195703 -1.50971,1.9486903 z m 0.83241,-1.2899003 c 0,-0.13693 -0.1786,-0.24896 -0.39688,-0.24896 -0.40915,0 -0.52565,0.31219 -0.22768,0.61017 0.21139,0.21138 0.62456,-0.0276 0.62456,-0.36121 z m -56.32556,-3.74639 c -0.0197,-0.29162 -0.17412,-0.39968 -0.43057,-0.30127 -0.27927,0.10717 -0.35321,0.0318 -0.24516,-0.24974 0.0971,-0.25299 -0.025,-0.44967 -0.32772,-0.52794 -0.3638,-0.0941 -0.32595,-0.13229 0.15387,-0.15543 0.63044,-0.0304 0.63173,-0.0362 0.13931,-0.62601 -0.27335,-0.32742 -0.32753,-0.44648 -0.12038,-0.26458 0.54013,0.47431 0.74754,0.41179 0.87782,-0.26458 l 0.11466,-0.59532 0.036,0.59532 c 0.0405,0.66957 0.29335,0.75223 0.80925,0.26458 0.28875,-0.27294 0.29637,-0.22671 0.0436,0.26458 -0.28131,0.54678 -0.2462,0.59702 0.43064,0.61621 0.67743,0.0192 0.62548,0.069 -0.41737,0.40007 -0.29912,0.095 -0.30129,0.1928 -0.0127,0.57435 0.29553,0.39082 0.29206,0.41022 -0.0231,0.12917 -0.50479,-0.45015 -0.73322,-0.41566 -0.87641,0.13229 -0.11202,0.42861 -0.12329,0.42923 -0.1517,0.008 z m -63.574105,-2.50428 c 0.278017,-0.52183 0.237395,-0.58841 -0.419703,-0.68796 l -0.727513,-0.11022 0.768612,-0.0396 c 0.765758,-0.0395 0.76674,-0.0417 0.264583,-0.60731 -0.500327,-0.56349005 -0.499791,-0.56544005 0.07295,-0.26508 0.504329,0.26448 0.591405,0.22768 0.691572,-0.29223005 0.11332,-0.58818 0.114998,-0.58783 0.150628,0.0314 0.02849,0.49514005 0.149925,0.59639005 0.580319,0.48383005 0.446608,-0.11679 0.488277,-0.0748 0.232187,0.23373 -0.254242,0.30634 -0.195732,0.38175 0.315608,0.40675 0.466194,0.0228 0.505739,0.0624 0.153688,0.15381 -0.350591,0.0911 -0.426771,0.27199 -0.292564,0.69484 0.156549,0.49324 0.125273,0.52509 -0.227854,0.23202 -0.33337,-0.27667 -0.438628,-0.27629 -0.567331,0.002 -0.129141,0.27931 -0.186903,0.27931 -0.316043,0 -0.12914,-0.27931 -0.233772,-0.27931 -0.572484,0 -0.366043,0.30184 -0.378503,0.27428 -0.106655,-0.23598 z m 146.584075,-5.821 c 0.40339,-0.76918 0.38508,-0.87262 -0.15994,-0.90367 -0.29747,-0.0169 -0.22997,-0.0913 0.18879,-0.20808 0.37993,-0.10592 0.7276,-0.45359 0.83353,-0.83353 0.11674,-0.41876 0.19114,-0.48626 0.20808,-0.18878 0.0308,0.54081 0.55352,0.6042 1.09092,0.13229 0.20714,-0.1819 0.15297,-0.0628 -0.12038,0.26458 -0.4962,0.59434 -0.49575,0.59537 0.2716,0.63134 0.62397,0.0292 0.65658,0.0576 0.1733,0.1507 -0.66257,0.12761 -0.76549,0.57198 -0.26459,1.1424 0.18191,0.20714 0.0752,0.16415 -0.23714,-0.0956 -0.44356,-0.36882 -0.60284,-0.39624 -0.7276,-0.12527 -0.13176,0.28615 -0.18771,0.28615 -0.31947,0 -0.12413,-0.2696 -0.28011,-0.24012 -0.69995,0.13229 -0.52863,0.4689 -0.53372,0.46678 -0.23715,-0.0987 z m 0.005,-1.86948 c -0.32911,-0.41965 -0.31975,-0.429 0.0999,-0.0999 0.44073,0.34564 0.58089,0.56292 0.36313,0.56292 -0.0549,0 -0.2633,-0.20836 -0.46302,-0.46302 z m -50.20638,-2.24896 c -0.0335,-0.50541 -0.43185,-0.61961 -0.69215,-0.19844 -0.0899,0.14552 -0.29401,0.26459 -0.45349,0.26459 -0.15949,0 -0.0745,-0.23813 0.18891,-0.52917 0.36622,-0.40467 0.39143,-0.53012 0.10715,-0.53322 -0.31346,-0.003 -0.31219,-0.0417 0.008,-0.24442 0.3301,-0.20887 0.3301,-0.30068 0,-0.70072 -0.3487,-0.4226 -0.33278,-0.43528 0.19411,-0.15457 0.44305,0.23604 0.60425,0.23083 0.70672,-0.0228 0.095,-0.23526 0.13868,-0.22301 0.15363,0.0431 0.0161,0.28718 0.14126,0.2628 0.55006,-0.10715 0.29104,-0.26339 0.52916,-0.3484 0.52916,-0.18892 0,0.15949 -0.11906,0.36356 -0.26458,0.4535 -0.40891,0.25272 -0.31361,0.60985 0.19844,0.74366 0.44097,0.11523 0.44097,0.12246 0,0.15169 -0.52121,0.0345 -0.58993,0.30173 -0.19844,0.77152 0.19242,0.23091 0.17799,0.24534 -0.0529,0.0529 -0.45861,-0.38218 -0.6856,-0.32745 -0.82303,0.19844 -0.11524,0.44098 -0.12246,0.44098 -0.15169,0 z m -69.644145,-3.4806397 -0.104256,-1.03325 -0.918562,0.76867 -0.918562,0.76866 0.751528,-0.99219 0.751528,-0.99219 -1.155883,-0.026 -1.155882,-0.026 1.131313,-0.30475 1.131313,-0.30475 -0.728424,-0.72761 c -0.400635,-0.40018 -0.600758,-0.7276 -0.444717,-0.7276 0.156041,0 0.499208,0.23812 0.762598,0.52917 0.675658,0.74659 0.922975,0.66014 0.946171,-0.33073 l 0.02013,-0.8599 0.32176,0.88908 0.321762,0.88908 0.907399,-0.75679 0.907402,-0.75679 -0.751528,0.99219 -0.751528,0.99219 h 0.809538 c 1.165048,0 1.296691,0.48105 0.158451,0.57901 l -0.957982,0.0825 0.57477,0.7276 c 0.665631,0.84263 0.329756,0.99341 -0.404807,0.18173 -0.493284,-0.54508 -0.494469,-0.54439 -0.796647,0.46302 l -0.302628,1.0088997 -0.104256,-1.0332397 z m 24.670311,-4.85373 c -0.039,-0.64468 -0.27802,-0.74644 -0.77686,-0.33073 -0.23091,0.19242 -0.24534,0.17799 -0.0529,-0.0529 0.38218,-0.45862 0.32745,-0.68561 -0.19844,-0.82303 -0.44097,-0.11524 -0.44097,-0.12247 0,-0.1517 0.52121,-0.0345 0.58993,-0.30173 0.19844,-0.77152 -0.19242,-0.23091 -0.17799,-0.24534 0.0529,-0.0529 0.48561,0.40467 0.6932,0.32082 0.81869,-0.33073 l 0.11466,-0.59531 0.036,0.59531 c 0.0434,0.71655 0.21807,0.7411 0.94124,0.13229 0.5418,-0.45612 0.5431,-0.45482 0.087,0.087 -0.60191,0.71499 -0.58441,0.84502 0.1323,0.98307 l 0.59531,0.11466 -0.59531,0.036 c -0.64469,0.039 -0.74644,0.27802 -0.33073,0.77686 0.19242,0.23091 0.17799,0.24534 -0.0529,0.0529 -0.48562,-0.40467 -0.6932,-0.32081 -0.8187,0.33073 l -0.11466,0.59532 z M 79.024645,-32.493047 c -0.03619,-0.545932 -0.309956,-0.589533 -0.830651,-0.132292 -0.207142,0.181901 -0.152972,0.06284 0.120383,-0.264583 0.309147,-0.370295 0.375597,-0.595313 0.175802,-0.595313 -0.176662,0 -0.249142,-0.116602 -0.161062,-0.259115 0.08808,-0.142513 0.01826,-0.529467 -0.155176,-0.859896 -0.313809,-0.597901 -0.312597,-0.598364 0.252347,-0.09675 0.562726,0.499643 0.567848,0.498492 0.588555,-0.132292 0.01299,-0.396138 0.07565,-0.486518 0.165967,-0.239445 0.07979,0.218282 0.388806,0.664766 0.686689,0.992188 0.350856,0.385644 0.420773,0.595312 0.198512,0.595312 -0.266539,0 -0.273458,0.08392 -0.031,0.376059 0.255072,0.307343 0.217054,0.351204 -0.20806,0.240035 -0.355499,-0.09297 -0.559959,0.01832 -0.645888,0.351545 -0.112791,0.437414 -0.128883,0.439939 -0.156419,0.02455 z m -45.243749,-0.958439 c -0.024,-0.490923 -0.107365,-0.564076 -0.382546,-0.335696 -0.282847,0.234743 -0.347711,0.09209 -0.330729,-0.727366 0.01452,-0.7006 0.124551,-0.979786 0.351854,-0.892767 0.181901,0.06964 0.332553,-0.03495 0.334781,-0.232425 0.0032,-0.287481 0.05196,-0.283331 0.244418,0.02083 0.208874,0.330093 0.30166,0.330093 0.708196,0 0.289713,-0.235237 0.392414,-0.254322 0.269748,-0.05013 -0.35468,0.590417 -0.426345,1.475741 -0.14673,1.812657 0.206416,0.248716 0.145926,0.296163 -0.246684,0.193493 -0.3555,-0.09297 -0.55996,0.01832 -0.645888,0.351545 -0.09759,0.378435 -0.132597,0.347067 -0.15642,-0.140141 z M 193.3336,-34.168742 c -0.0552,-0.767156 -0.31771,-0.956319 -0.79244,-0.570968 -0.33767,0.274093 -0.37699,0.254654 -0.23765,-0.117493 0.0918,-0.24526 0.069,-0.483385 -0.0507,-0.529167 -0.1197,-0.04578 0.12511,-0.418145 0.54402,-0.827473 0.41892,-0.409329 0.76167,-0.6135 0.76167,-0.453712 0,0.204494 0.17628,0.198018 0.59531,-0.02187 0.59212,-0.310717 0.59261,-0.309348 0.0913,0.255274 -0.44535,0.501574 -0.45305,0.567666 -0.0661,0.567666 0.5117,0 0.58968,0.433981 0.10715,0.596383 -0.25329,0.08525 -0.23887,0.229805 0.0616,0.617361 0.38318,0.494269 0.37902,0.494733 -0.17864,0.01994 -0.56371,-0.479948 -0.57237,-0.476595 -0.6834,0.264583 -0.0739,0.493505 -0.12603,0.561845 -0.15209,0.199475 z M 79.787704,-34.378879 c 0,-0.05494 0.208359,-0.263302 0.463021,-0.463021 0.419645,-0.329108 0.429003,-0.319749 0.0999,0.09989 -0.345644,0.44073 -0.562917,0.580888 -0.562917,0.363127 z m 60.890196,-2.224519 c -0.0321,-0.538894 -0.10074,-0.571326 -0.63134,-0.298342 -0.49129,0.252762 -0.53752,0.245142 -0.26458,-0.04361 0.4774,-0.50506 0.41024,-0.721101 -0.26459,-0.851078 l -0.59531,-0.114662 0.59531,-0.03603 c 0.64469,-0.03902 0.74644,-0.278023 0.33073,-0.776865 -0.19242,-0.230909 -0.17799,-0.245341 0.0529,-0.05292 0.48561,0.404677 0.6932,0.320818 0.81869,-0.330729 l 0.11466,-0.595313 0.036,0.595313 c 0.0405,0.669576 0.29334,0.752237 0.80925,0.264583 0.28839,-0.272598 0.29778,-0.229316 0.0534,0.246247 -0.25804,0.502188 -0.21937,0.591831 0.29834,0.691573 l 0.59481,0.114596 -0.59531,0.03603 c -0.64469,0.03902 -0.74644,0.278022 -0.33073,0.776864 0.19242,0.230909 0.17799,0.245341 -0.0529,0.05292 -0.48561,-0.404677 -0.6932,-0.320818 -0.81869,0.330729 l -0.11466,0.595313 z m 51.52397,0.0093 c -0.32911,-0.419644 -0.31975,-0.429002 0.0999,-0.09989 0.25466,0.19972 0.46302,0.408079 0.46302,0.463021 0,0.217761 -0.21727,0.0776 -0.56292,-0.363126 z"
       id="path980"
       inkscape:connector-curvature="0" />
    <g
       id="g2557"
       inkscape:export-filename="/home/lobo/Git/astrobook/figs/sky_path.png"
       inkscape:export-xdpi="96"
       inkscape:export-ydpi="96"
       transform="matrix(-1,0,0,1,213.80366,0)">
      <path
         inkscape:transform-center-y="-1.0277891e-06"
         d="m 24.946129,93.946575 -1.507793,-1.640986 -1.957485,1.065141 1.094737,-1.941088 -1.617906,-1.532532 2.184378,0.441327 0.957564,-2.012298 0.255283,2.213843 2.209713,0.288864 -2.026604,0.926904 z"
         inkscape:randomized="0"
         inkscape:rounded="0"
         inkscape:flatsided="false"
         sodipodi:arg2="1.7354672"
         sodipodi:arg1="1.1071487"
         sodipodi:r2="1.0458574"
         sodipodi:r1="2.9881642"
         sodipodi:cy="91.27388"
         sodipodi:cx="23.609781"
         sodipodi:sides="5"
         id="path982"
         style="fill:#000000;fill-opacity:1;stroke:none;stroke-width:0.5;stroke-miterlimit:4;stroke-dasharray:2, 2;stroke-dashoffset:0;stroke-opacity:1"
         sodipodi:type="star" />
      <path
         inkscape:transform-center-x="0.16377636"
         transform="matrix(0.84625122,-0.25052709,0.29659708,1.0018702,-27.219073,7.3880129)"
         sodipodi:type="star"
         style="fill:#000000;fill-opacity:1;stroke:none;stroke-width:0.35699704;stroke-miterlimit:4;stroke-dasharray:1.42798819, 1.42798819;stroke-dashoffset:0;stroke-opacity:1"
         id="path984"
         sodipodi:sides="5"
         sodipodi:cx="37.817757"
         sodipodi:cy="126.05568"
         sodipodi:r1="2.1335316"
         sodipodi:r2="0.74673605"
         sodipodi:arg1="1.1071487"
         sodipodi:arg2="1.7354672"
         inkscape:flatsided="false"
         inkscape:rounded="0"
         inkscape:randomized="0"
         d="m 38.771901,127.96397 -1.076555,-1.17166 -1.397633,0.76051 0.781636,-1.38593 -1.155175,-1.09422 1.559632,0.31511 0.683696,-1.43677 0.18227,1.58067 1.577722,0.20625 -1.446983,0.6618 z"
         inkscape:transform-center-y="-0.032289694" />
      <path
         inkscape:transform-center-y="-1.0277891e-06"
         d="m 30.660664,157.64303 -1.507793,-1.64098 -1.957485,1.06514 1.094737,-1.94109 -1.617906,-1.53253 2.184377,0.44132 0.957565,-2.01229 0.255283,2.21384 2.209712,0.28886 -2.026603,0.92691 z"
         inkscape:randomized="0"
         inkscape:rounded="0"
         inkscape:flatsided="false"
         sodipodi:arg2="1.7354672"
         sodipodi:arg1="1.1071487"
         sodipodi:r2="1.0458574"
         sodipodi:r1="2.9881642"
         sodipodi:cy="154.97034"
         sodipodi:cx="29.324316"
         sodipodi:sides="5"
         id="path986"
         style="fill:#000000;fill-opacity:1;stroke:none;stroke-width:0.5;stroke-miterlimit:4;stroke-dasharray:2, 2;stroke-dashoffset:0;stroke-opacity:1"
         sodipodi:type="star" />
      <path
         transform="matrix(0.84625122,-0.25052709,0.29659708,1.0018702,-13.053788,24.225993)"
         inkscape:transform-center-x="0.16377683"
         sodipodi:type="star"
         style="fill:#000000;fill-opacity:1;stroke:none;stroke-width:0.35699704;stroke-miterlimit:4;stroke-dasharray:1.42798819, 1.42798819;stroke-dashoffset:0;stroke-opacity:1"
         id="path988"
         sodipodi:sides="5"
         sodipodi:cx="56.143585"
         sodipodi:cy="136.40948"
         sodipodi:r1="2.1335316"
         sodipodi:r2="0.74673605"
         sodipodi:arg1="1.1071487"
         sodipodi:arg2="1.7354672"
         inkscape:flatsided="false"
         inkscape:rounded="0"
         inkscape:randomized="0"
         d="m 57.09773,138.31777 -1.076555,-1.17165 -1.397633,0.7605 0.781635,-1.38592 -1.155175,-1.09422 1.559633,0.3151 0.683695,-1.43677 0.18227,1.58068 1.577722,0.20624 -1.446983,0.66181 z"
         inkscape:transform-center-y="-0.032286299" />
      <path
         inkscape:transform-center-x="0.1637754"
         transform="matrix(0.84625122,-0.25052709,0.29659708,1.0018702,-27.219073,7.3880129)"
         inkscape:transform-center-y="-0.032285957"
         d="m 57.939458,118.20797 -1.076555,-1.17165 -1.397633,0.7605 0.781635,-1.38592 -1.155175,-1.09422 1.559633,0.3151 0.683695,-1.43677 0.182271,1.58067 1.577722,0.20625 -1.446984,0.6618 z"
         inkscape:randomized="0"
         inkscape:rounded="0"
         inkscape:flatsided="false"
         sodipodi:arg2="1.7354672"
         sodipodi:arg1="1.1071487"
         sodipodi:r2="0.74673605"
         sodipodi:r1="2.1335316"
         sodipodi:cy="116.29968"
         sodipodi:cx="56.985313"
         sodipodi:sides="5"
         id="path990"
         style="fill:#000000;fill-opacity:1;stroke:none;stroke-width:0.35699704;stroke-miterlimit:4;stroke-dasharray:1.42798819, 1.42798819;stroke-dashoffset:0;stroke-opacity:1"
         sodipodi:type="star" />
      <path
         sodipodi:type="star"
         style="fill:#000000;fill-opacity:1;stroke:none;stroke-width:0.5;stroke-miterlimit:4;stroke-dasharray:2, 2;stroke-dashoffset:0;stroke-opacity:1"
         id="path992"
         sodipodi:sides="5"
         sodipodi:cx="86.514145"
         sodipodi:cy="90.176491"
         sodipodi:r1="2.9881642"
         sodipodi:r2="1.0458574"
         sodipodi:arg1="1.1071487"
         sodipodi:arg2="1.7354672"
         inkscape:flatsided="false"
         inkscape:rounded="0"
         inkscape:randomized="0"
         d="M 87.850493,92.849186 86.3427,91.2082 l -1.957485,1.065141 1.094736,-1.941088 -1.617905,-1.532533 2.184377,0.441327 0.957565,-2.012298 0.255282,2.213844 2.209713,0.288864 -2.026604,0.926903 z"
         inkscape:transform-center-y="-1.0277891e-06" />
      <path
         inkscape:transform-center-y="-1.0277891e-06"
         d="m 78.806662,121.87438 -1.507793,-1.64099 -1.957485,1.06514 1.094737,-1.94109 -1.617906,-1.53253 2.184377,0.44133 0.957565,-2.0123 0.255283,2.21385 2.209712,0.28886 -2.026603,0.9269 z"
         inkscape:randomized="0"
         inkscape:rounded="0"
         inkscape:flatsided="false"
         sodipodi:arg2="1.7354672"
         sodipodi:arg1="1.1071487"
         sodipodi:r2="1.0458574"
         sodipodi:r1="2.9881642"
         sodipodi:cy="119.20168"
         sodipodi:cx="77.470314"
         sodipodi:sides="5"
         id="path994"
         style="fill:#000000;fill-opacity:1;stroke:none;stroke-width:0.5;stroke-miterlimit:4;stroke-dasharray:2, 2;stroke-dashoffset:0;stroke-opacity:1"
         sodipodi:type="star" />
      <path
         sodipodi:type="star"
         style="fill:#000000;fill-opacity:1;stroke:none;stroke-width:0.5;stroke-miterlimit:4;stroke-dasharray:2, 2;stroke-dashoffset:0;stroke-opacity:1"
         id="path996"
         sodipodi:sides="5"
         sodipodi:cx="99.306236"
         sodipodi:cy="137.38181"
         sodipodi:r1="2.9881642"
         sodipodi:r2="1.0458574"
         sodipodi:arg1="1.1071487"
         sodipodi:arg2="1.7354672"
         inkscape:flatsided="false"
         inkscape:rounded="0"
         inkscape:randomized="0"
         d="m 100.64258,140.0545 -1.507789,-1.64099 -1.957485,1.06515 1.094737,-1.94109 -1.617906,-1.53254 2.184378,0.44133 0.957564,-2.0123 0.255281,2.21385 2.20971,0.28886 -2.0266,0.92691 z"
         inkscape:transform-center-y="-1.0277891e-06" />
      <path
         inkscape:transform-center-y="-1.0277891e-06"
         d="m 90.033568,186.43797 -1.507793,-1.64099 -1.957485,1.06514 1.094736,-1.94108 -1.617905,-1.53254 2.184377,0.44133 0.957565,-2.0123 0.255282,2.21385 2.209713,0.28886 -2.026604,0.9269 z"
         inkscape:randomized="0"
         inkscape:rounded="0"
         inkscape:flatsided="false"
         sodipodi:arg2="1.7354672"
         sodipodi:arg1="1.1071487"
         sodipodi:r2="1.0458574"
         sodipodi:r1="2.9881642"
         sodipodi:cy="183.76527"
         sodipodi:cx="88.69722"
         sodipodi:sides="5"
         id="path998"
         style="fill:#000000;fill-opacity:1;stroke:none;stroke-width:0.5;stroke-miterlimit:4;stroke-dasharray:2, 2;stroke-dashoffset:0;stroke-opacity:1"
         sodipodi:type="star" />
      <path
         inkscape:transform-center-y="-0.032293096"
         transform="matrix(0.84625122,-0.25052709,0.29659708,1.0018702,-44.858861,1.2408137)"
         inkscape:transform-center-x="0.16377576"
         sodipodi:type="star"
         style="fill:#000000;fill-opacity:1;stroke:none;stroke-width:0.35699704;stroke-miterlimit:4;stroke-dasharray:1.42798819, 1.42798819;stroke-dashoffset:0;stroke-opacity:1"
         id="path1000"
         sodipodi:sides="5"
         sodipodi:cx="57.429066"
         sodipodi:cy="164.41969"
         sodipodi:r1="2.1335316"
         sodipodi:r2="0.74673605"
         sodipodi:arg1="1.1071487"
         sodipodi:arg2="1.7354672"
         inkscape:flatsided="false"
         inkscape:rounded="0"
         inkscape:randomized="0"
         d="m 58.38321,166.32798 -1.076555,-1.17165 -1.397633,0.7605 0.781636,-1.38592 -1.155175,-1.09422 1.559632,0.3151 0.683696,-1.43677 0.18227,1.58067 1.577722,0.20625 -1.446983,0.66181 z" />
      <path
         inkscape:transform-center-y="-1.0277891e-06"
         d="m 29.751392,188.50677 -1.507792,-1.64098 -1.957485,1.06514 1.094736,-1.94109 -1.617905,-1.53253 2.184377,0.44132 0.957565,-2.0123 0.255282,2.21385 2.209713,0.28886 -2.026604,0.92691 z"
         inkscape:randomized="0"
         inkscape:rounded="0"
         inkscape:flatsided="false"
         sodipodi:arg2="1.7354672"
         sodipodi:arg1="1.1071487"
         sodipodi:r2="1.0458574"
         sodipodi:r1="2.9881642"
         sodipodi:cy="185.83408"
         sodipodi:cx="28.415045"
         sodipodi:sides="5"
         id="path1002"
         style="fill:#000000;fill-opacity:1;stroke:none;stroke-width:0.5;stroke-miterlimit:4;stroke-dasharray:2, 2;stroke-dashoffset:0;stroke-opacity:1"
         sodipodi:type="star" />
      <path
         transform="matrix(0.84625122,-0.25052709,0.29659708,1.0018702,-48.333365,36.787661)"
         sodipodi:type="star"
         style="fill:#000000;fill-opacity:1;stroke:none;stroke-width:0.35699704;stroke-miterlimit:4;stroke-dasharray:1.42798819, 1.42798819;stroke-dashoffset:0;stroke-opacity:1"
         id="path1004"
         sodipodi:sides="5"
         sodipodi:cx="72.501633"
         sodipodi:cy="165.91811"
         sodipodi:r1="2.1335316"
         sodipodi:r2="0.74673605"
         sodipodi:arg1="1.1071487"
         sodipodi:arg2="1.7354672"
         inkscape:flatsided="false"
         inkscape:rounded="0"
         inkscape:randomized="0"
         d="m 73.455777,167.82639 -1.076555,-1.17165 -1.397633,0.7605 0.781636,-1.38592 -1.155175,-1.09422 1.559632,0.31511 0.683696,-1.43677 0.18227,1.58067 1.577722,0.20624 -1.446983,0.66181 z" />
      <path
         inkscape:transform-center-y="-1.0277891e-06"
         d="m 122.50741,172.91529 -1.50779,-1.64098 -1.95748,1.06514 1.09473,-1.94109 -1.6179,-1.53253 2.18437,0.44133 0.95757,-2.0123 0.25528,2.21384 2.20971,0.28887 -2.0266,0.9269 z"
         inkscape:randomized="0"
         inkscape:rounded="0"
         inkscape:flatsided="false"
         sodipodi:arg2="1.7354672"
         sodipodi:arg1="1.1071487"
         sodipodi:r2="1.0458574"
         sodipodi:r1="2.9881642"
         sodipodi:cy="170.2426"
         sodipodi:cx="121.17107"
         sodipodi:sides="5"
         id="path1006"
         style="fill:#000000;fill-opacity:1;stroke:none;stroke-width:0.5;stroke-miterlimit:4;stroke-dasharray:2, 2;stroke-dashoffset:0;stroke-opacity:1"
         sodipodi:type="star" />
      <path
         sodipodi:type="star"
         style="fill:#000000;fill-opacity:1;stroke:none;stroke-width:0.5;stroke-miterlimit:4;stroke-dasharray:2, 2;stroke-dashoffset:0;stroke-opacity:1"
         id="path1008"
         sodipodi:sides="5"
         sodipodi:cx="147.20119"
         sodipodi:cy="181.98334"
         sodipodi:r1="2.9881642"
         sodipodi:r2="1.0458574"
         sodipodi:arg1="1.1071487"
         sodipodi:arg2="1.7354672"
         inkscape:flatsided="false"
         inkscape:rounded="0"
         inkscape:randomized="0"
         d="m 148.53753,184.65603 -1.50779,-1.64098 -1.95748,1.06514 1.09473,-1.94109 -1.6179,-1.53253 2.18438,0.44132 0.95756,-2.01229 0.25528,2.21384 2.20972,0.28886 -2.02661,0.92691 z"
         inkscape:transform-center-y="-1.0277891e-06" />
      <path
         inkscape:transform-center-y="-1.0277891e-06"
         d="m 186.44356,187.49607 -1.5078,-1.64098 -1.95748,1.06514 1.09473,-1.94109 -1.6179,-1.53253 2.18438,0.44133 0.95756,-2.0123 0.25528,2.21384 2.20972,0.28887 -2.02661,0.9269 z"
         inkscape:randomized="0"
         inkscape:rounded="0"
         inkscape:flatsided="false"
         sodipodi:arg2="1.7354672"
         sodipodi:arg1="1.1071487"
         sodipodi:r2="1.0458574"
         sodipodi:r1="2.9881642"
         sodipodi:cy="184.82338"
         sodipodi:cx="185.10721"
         sodipodi:sides="5"
         id="path1010"
         style="fill:#000000;fill-opacity:1;stroke:none;stroke-width:0.5;stroke-miterlimit:4;stroke-dasharray:2, 2;stroke-dashoffset:0;stroke-opacity:1"
         sodipodi:type="star" />
      <path
         sodipodi:type="star"
         style="fill:#000000;fill-opacity:1;stroke:none;stroke-width:0.5;stroke-miterlimit:4;stroke-dasharray:2, 2;stroke-dashoffset:0;stroke-opacity:1"
         id="path1012"
         sodipodi:sides="5"
         sodipodi:cx="167.02551"
         sodipodi:cy="143.68701"
         sodipodi:r1="2.9881642"
         sodipodi:r2="1.0458574"
         sodipodi:arg1="1.1071487"
         sodipodi:arg2="1.7354672"
         inkscape:flatsided="false"
         inkscape:rounded="0"
         inkscape:randomized="0"
         d="m 168.36186,146.35971 -1.50779,-1.64099 -1.95749,1.06514 1.09474,-1.94109 -1.61791,-1.53253 2.18438,0.44133 0.95757,-2.0123 0.25528,2.21384 2.20971,0.28887 -2.0266,0.9269 z"
         inkscape:transform-center-y="-1.0277891e-06" />
      <path
         inkscape:transform-center-y="-1.0277891e-06"
         d="m 185.0386,125.05668 -1.50779,-1.64099 -1.95748,1.06514 1.09473,-1.94109 -1.6179,-1.53253 2.18437,0.44133 0.95757,-2.0123 0.25528,2.21384 2.20971,0.28887 -2.0266,0.9269 z"
         inkscape:randomized="0"
         inkscape:rounded="0"
         inkscape:flatsided="false"
         sodipodi:arg2="1.7354672"
         sodipodi:arg1="1.1071487"
         sodipodi:r2="1.0458574"
         sodipodi:r1="2.9881642"
         sodipodi:cy="122.38398"
         sodipodi:cx="183.70226"
         sodipodi:sides="5"
         id="path1014"
         style="fill:#000000;fill-opacity:1;stroke:none;stroke-width:0.5;stroke-miterlimit:4;stroke-dasharray:2, 2;stroke-dashoffset:0;stroke-opacity:1"
         sodipodi:type="star" />
      <path
         sodipodi:type="star"
         style="fill:#000000;fill-opacity:1;stroke:none;stroke-width:0.5;stroke-miterlimit:4;stroke-dasharray:2, 2;stroke-dashoffset:0;stroke-opacity:1"
         id="path1016"
         sodipodi:sides="5"
         sodipodi:cx="184.49574"
         sodipodi:cy="90.633972"
         sodipodi:r1="2.9881642"
         sodipodi:r2="1.0458574"
         sodipodi:arg1="1.1071487"
         sodipodi:arg2="1.7354672"
         inkscape:flatsided="false"
         inkscape:rounded="0"
         inkscape:randomized="0"
         d="m 185.83209,93.306667 -1.50779,-1.640985 -1.95749,1.065141 1.09474,-1.941089 -1.61791,-1.532532 2.18438,0.441327 0.95757,-2.012298 0.25528,2.213844 2.20971,0.288863 -2.0266,0.926904 z"
         inkscape:transform-center-y="-1.0277891e-06" />
      <path
         inkscape:transform-center-y="-1.0277891e-06"
         d="m 135.78967,120.79541 -1.50779,-1.64099 -1.95749,1.06514 1.09474,-1.94109 -1.61791,-1.53253 2.18438,0.44133 0.95757,-2.0123 0.25528,2.21384 2.20971,0.28887 -2.0266,0.9269 z"
         inkscape:randomized="0"
         inkscape:rounded="0"
         inkscape:flatsided="false"
         sodipodi:arg2="1.7354672"
         sodipodi:arg1="1.1071487"
         sodipodi:r2="1.0458574"
         sodipodi:r1="2.9881642"
         sodipodi:cy="118.12271"
         sodipodi:cx="134.45332"
         sodipodi:sides="5"
         id="path1018"
         style="fill:#000000;fill-opacity:1;stroke:none;stroke-width:0.5;stroke-miterlimit:4;stroke-dasharray:2, 2;stroke-dashoffset:0;stroke-opacity:1"
         sodipodi:type="star" />
      <path
         sodipodi:type="star"
         style="fill:#000000;fill-opacity:1;stroke:none;stroke-width:0.5;stroke-miterlimit:4;stroke-dasharray:2, 2;stroke-dashoffset:0;stroke-opacity:1"
         id="path1020"
         sodipodi:sides="5"
         sodipodi:cx="150.7851"
         sodipodi:cy="90.284142"
         sodipodi:r1="2.9881642"
         sodipodi:r2="1.0458574"
         sodipodi:arg1="1.1071487"
         sodipodi:arg2="1.7354672"
         inkscape:flatsided="false"
         inkscape:rounded="0"
         inkscape:randomized="0"
         d="m 152.12144,92.956837 -1.50779,-1.640986 -1.95748,1.065141 1.09473,-1.941089 -1.6179,-1.532532 2.18437,0.441327 0.95757,-2.012298 0.25528,2.213844 2.20971,0.288864 -2.0266,0.926903 z"
         inkscape:transform-center-y="-1.0277891e-06" />
      <path
         sodipodi:nodetypes="cccc"
         inkscape:connector-curvature="0"
         id="path1024"
         d="m 35.012307,88.529767 c 0,0 72.430043,-0.534539 93.544343,59.066563 23.38173,65.04817 -55.5956,27.87254 -15.50164,-4.81085 20.57976,-16.03617 48.77431,-5.23184 43.61526,-8.11815"
         style="fill:none;stroke:#040000;stroke-width:0.5;stroke-linecap:butt;stroke-linejoin:miter;stroke-miterlimit:4;stroke-dasharray:none;stroke-opacity:1" />
      <circle
         r="2.6726952"
         cy="135.29117"
         cx="156.89259"
         id="path1029"
         style="fill:#000000;fill-opacity:1;fill-rule:nonzero;stroke:#040000;stroke-width:0.5;stroke-miterlimit:4;stroke-dasharray:none;stroke-dashoffset:0;stroke-opacity:1" />
      <rect
         y="79.840805"
         x="17.133299"
         height="114.53706"
         width="179.53706"
         id="rect2513"
         style="fill:none;fill-opacity:1;fill-rule:nonzero;stroke:#040000;stroke-width:0.75;stroke-miterlimit:4;stroke-dasharray:none;stroke-dashoffset:0;stroke-opacity:1" />
    </g>
  </g>
</svg>
