<?xml version="1.0" encoding="UTF-8" standalone="no"?>
<!-- Created with Inkscape (http://www.inkscape.org/) -->

<svg
   xmlns:dc="http://purl.org/dc/elements/1.1/"
   xmlns:cc="http://creativecommons.org/ns#"
   xmlns:rdf="http://www.w3.org/1999/02/22-rdf-syntax-ns#"
   xmlns:svg="http://www.w3.org/2000/svg"
   xmlns="http://www.w3.org/2000/svg"
   xmlns:sodipodi="http://sodipodi.sourceforge.net/DTD/sodipodi-0.dtd"
   xmlns:inkscape="http://www.inkscape.org/namespaces/inkscape"
   width="210mm"
   height="297mm"
   viewBox="0 0 210 297"
   version="1.1"
   id="svg8"
   inkscape:version="0.92.4 (f8dce91, 2019-08-02)"
   sodipodi:docname="stars_template.svg">
  <defs
     id="defs2" />
  <sodipodi:namedview
     id="base"
     pagecolor="#ffffff"
     bordercolor="#666666"
     borderopacity="1.0"
     inkscape:pageopacity="0.0"
     inkscape:pageshadow="2"
     inkscape:zoom="0.98994949"
     inkscape:cx="279.60128"
     inkscape:cy="595.13762"
     inkscape:document-units="mm"
     inkscape:current-layer="layer1"
     showgrid="false"
     inkscape:window-width="1366"
     inkscape:window-height="713"
     inkscape:window-x="0"
     inkscape:window-y="27"
     inkscape:window-maximized="1" />
  <metadata
     id="metadata5">
    <rdf:RDF>
      <cc:Work
         rdf:about="">
        <dc:format>image/svg+xml</dc:format>
        <dc:type
           rdf:resource="http://purl.org/dc/dcmitype/StillImage" />
        <dc:title />
      </cc:Work>
    </rdf:RDF>
  </metadata>
  <g
     inkscape:label="Layer 1"
     inkscape:groupmode="layer"
     id="layer1">
    <path
       sodipodi:type="star"
       style="fill:#000000;fill-opacity:1;stroke:none;stroke-width:0.5;stroke-miterlimit:4;stroke-dasharray:2, 2;stroke-dashoffset:0;stroke-opacity:1"
       id="path982"
       sodipodi:sides="5"
       sodipodi:cx="-190.19388"
       sodipodi:cy="91.27388"
       sodipodi:r1="2.9881642"
       sodipodi:r2="1.0458574"
       sodipodi:arg1="1.1071487"
       sodipodi:arg2="1.7354672"
       inkscape:flatsided="false"
       inkscape:rounded="0"
       inkscape:randomized="0"
       d="m -188.85753,93.946575 -1.50779,-1.640986 -1.95749,1.065141 1.09474,-1.941088 -1.61791,-1.532532 2.18438,0.441327 0.95756,-2.012298 0.25529,2.213843 2.20971,0.288864 -2.0266,0.926904 z"
       inkscape:transform-center-y="-1.0277891e-06"
       transform="scale(-1,1)" />
    <path
       inkscape:transform-center-y="-0.032289694"
       d="m 38.771901,127.96397 -1.076555,-1.17166 -1.397633,0.76051 0.781636,-1.38593 -1.155175,-1.09422 1.559632,0.31511 0.683696,-1.43677 0.18227,1.58067 1.577722,0.20625 -1.446983,0.6618 z"
       inkscape:randomized="0"
       inkscape:rounded="0"
       inkscape:flatsided="false"
       sodipodi:arg2="1.7354672"
       sodipodi:arg1="1.1071487"
       sodipodi:r2="0.74673605"
       sodipodi:r1="2.1335316"
       sodipodi:cy="126.05568"
       sodipodi:cx="37.817757"
       sodipodi:sides="5"
       id="path984"
       style="fill:#000000;fill-opacity:1;stroke:none;stroke-width:0.35699704;stroke-miterlimit:4;stroke-dasharray:1.42798819, 1.42798819;stroke-dashoffset:0;stroke-opacity:1"
       sodipodi:type="star"
       transform="matrix(-0.84625122,-0.25052709,-0.29659708,1.0018702,241.02273,7.3880129)"
       inkscape:transform-center-x="0.16377636" />
    <path
       sodipodi:type="star"
       style="fill:#000000;fill-opacity:1;stroke:none;stroke-width:0.5;stroke-miterlimit:4;stroke-dasharray:2, 2;stroke-dashoffset:0;stroke-opacity:1"
       id="path986"
       sodipodi:sides="5"
       sodipodi:cx="-184.47934"
       sodipodi:cy="154.97034"
       sodipodi:r1="2.9881642"
       sodipodi:r2="1.0458574"
       sodipodi:arg1="1.1071487"
       sodipodi:arg2="1.7354672"
       inkscape:flatsided="false"
       inkscape:rounded="0"
       inkscape:randomized="0"
       d="m -183.14299,157.64303 -1.50779,-1.64098 -1.95749,1.06514 1.09474,-1.94109 -1.61791,-1.53253 2.18438,0.44132 0.95756,-2.01229 0.25529,2.21384 2.20971,0.28886 -2.02661,0.92691 z"
       inkscape:transform-center-y="-1.0277891e-06"
       transform="scale(-1,1)" />
    <path
       inkscape:transform-center-y="-0.032286299"
       d="m 57.09773,138.31777 -1.076555,-1.17165 -1.397633,0.7605 0.781635,-1.38592 -1.155175,-1.09422 1.559633,0.3151 0.683695,-1.43677 0.18227,1.58068 1.577722,0.20624 -1.446983,0.66181 z"
       inkscape:randomized="0"
       inkscape:rounded="0"
       inkscape:flatsided="false"
       sodipodi:arg2="1.7354672"
       sodipodi:arg1="1.1071487"
       sodipodi:r2="0.74673605"
       sodipodi:r1="2.1335316"
       sodipodi:cy="136.40948"
       sodipodi:cx="56.143585"
       sodipodi:sides="5"
       id="path988"
       style="fill:#000000;fill-opacity:1;stroke:none;stroke-width:0.35699704;stroke-miterlimit:4;stroke-dasharray:1.42798819, 1.42798819;stroke-dashoffset:0;stroke-opacity:1"
       sodipodi:type="star"
       inkscape:transform-center-x="0.16377683"
       transform="matrix(-0.84625122,-0.25052709,-0.29659708,1.0018702,169.66177,26.898688)" />
    <path
       sodipodi:type="star"
       style="fill:#000000;fill-opacity:1;stroke:none;stroke-width:0.35699704;stroke-miterlimit:4;stroke-dasharray:1.42798819, 1.42798819;stroke-dashoffset:0;stroke-opacity:1"
       id="path990"
       sodipodi:sides="5"
       sodipodi:cx="56.985313"
       sodipodi:cy="116.29968"
       sodipodi:r1="2.1335316"
       sodipodi:r2="0.74673605"
       sodipodi:arg1="1.1071487"
       sodipodi:arg2="1.7354672"
       inkscape:flatsided="false"
       inkscape:rounded="0"
       inkscape:randomized="0"
       d="m 57.939458,118.20797 -1.076555,-1.17165 -1.397633,0.7605 0.781635,-1.38592 -1.155175,-1.09422 1.559633,0.3151 0.683695,-1.43677 0.182271,1.58067 1.577722,0.20625 -1.446984,0.6618 z"
       inkscape:transform-center-y="-0.032285957"
       transform="matrix(-0.84625122,-0.25052709,-0.29659708,1.0018702,187.30155,-2.7682291)"
       inkscape:transform-center-x="0.1637754" />
    <path
       inkscape:transform-center-y="-1.0277891e-06"
       d="m -125.95317,92.849186 -1.5078,-1.640986 -1.95748,1.065141 1.09474,-1.941088 -1.61791,-1.532533 2.18438,0.441327 0.95756,-2.012298 0.25529,2.213844 2.20971,0.288864 -2.02661,0.926903 z"
       inkscape:randomized="0"
       inkscape:rounded="0"
       inkscape:flatsided="false"
       sodipodi:arg2="1.7354672"
       sodipodi:arg1="1.1071487"
       sodipodi:r2="1.0458574"
       sodipodi:r1="2.9881642"
       sodipodi:cy="90.176491"
       sodipodi:cx="-127.28952"
       sodipodi:sides="5"
       id="path992"
       style="fill:#000000;fill-opacity:1;stroke:none;stroke-width:0.5;stroke-miterlimit:4;stroke-dasharray:2, 2;stroke-dashoffset:0;stroke-opacity:1"
       sodipodi:type="star"
       transform="scale(-1,1)" />
    <path
       sodipodi:type="star"
       style="fill:#000000;fill-opacity:1;stroke:none;stroke-width:0.5;stroke-miterlimit:4;stroke-dasharray:2, 2;stroke-dashoffset:0;stroke-opacity:1"
       id="path994"
       sodipodi:sides="5"
       sodipodi:cx="-136.33334"
       sodipodi:cy="119.20168"
       sodipodi:r1="2.9881642"
       sodipodi:r2="1.0458574"
       sodipodi:arg1="1.1071487"
       sodipodi:arg2="1.7354672"
       inkscape:flatsided="false"
       inkscape:rounded="0"
       inkscape:randomized="0"
       d="m -134.997,121.87438 -1.50779,-1.64099 -1.95748,1.06514 1.09473,-1.94109 -1.6179,-1.53253 2.18437,0.44133 0.95757,-2.0123 0.25528,2.21385 2.20971,0.28886 -2.0266,0.9269 z"
       inkscape:transform-center-y="-1.0277891e-06"
       transform="scale(-1,1)" />
    <path
       inkscape:transform-center-y="-1.0277891e-06"
       d="m -113.16107,140.0545 -1.5078,-1.64099 -1.95748,1.06515 1.09474,-1.94109 -1.61791,-1.53254 2.18438,0.44133 0.95756,-2.0123 0.25528,2.21385 2.20972,0.28886 -2.02661,0.92691 z"
       inkscape:randomized="0"
       inkscape:rounded="0"
       inkscape:flatsided="false"
       sodipodi:arg2="1.7354672"
       sodipodi:arg1="1.1071487"
       sodipodi:r2="1.0458574"
       sodipodi:r1="2.9881642"
       sodipodi:cy="137.38181"
       sodipodi:cx="-114.49742"
       sodipodi:sides="5"
       id="path996"
       style="fill:#000000;fill-opacity:1;stroke:none;stroke-width:0.5;stroke-miterlimit:4;stroke-dasharray:2, 2;stroke-dashoffset:0;stroke-opacity:1"
       sodipodi:type="star"
       transform="scale(-1,1)" />
    <path
       sodipodi:type="star"
       style="fill:#000000;fill-opacity:1;stroke:none;stroke-width:0.5;stroke-miterlimit:4;stroke-dasharray:2, 2;stroke-dashoffset:0;stroke-opacity:1"
       id="path998"
       sodipodi:sides="5"
       sodipodi:cx="-125.10644"
       sodipodi:cy="183.76527"
       sodipodi:r1="2.9881642"
       sodipodi:r2="1.0458574"
       sodipodi:arg1="1.1071487"
       sodipodi:arg2="1.7354672"
       inkscape:flatsided="false"
       inkscape:rounded="0"
       inkscape:randomized="0"
       d="m -123.77009,186.43797 -1.50779,-1.64099 -1.95749,1.06514 1.09474,-1.94108 -1.61791,-1.53254 2.18438,0.44133 0.95757,-2.0123 0.25528,2.21385 2.20971,0.28886 -2.0266,0.9269 z"
       inkscape:transform-center-y="-1.0277891e-06"
       transform="scale(-1,1)" />
    <path
       d="m 58.38321,166.32798 -1.076555,-1.17165 -1.397633,0.7605 0.781636,-1.38592 -1.155175,-1.09422 1.559632,0.3151 0.683696,-1.43677 0.18227,1.58067 1.577722,0.20625 -1.446983,0.66181 z"
       inkscape:randomized="0"
       inkscape:rounded="0"
       inkscape:flatsided="false"
       sodipodi:arg2="1.7354672"
       sodipodi:arg1="1.1071487"
       sodipodi:r2="0.74673605"
       sodipodi:r1="2.1335316"
       sodipodi:cy="164.41969"
       sodipodi:cx="57.429066"
       sodipodi:sides="5"
       id="path1000"
       style="fill:#000000;fill-opacity:1;stroke:none;stroke-width:0.35699704;stroke-miterlimit:4;stroke-dasharray:1.42798819, 1.42798819;stroke-dashoffset:0;stroke-opacity:1"
       sodipodi:type="star"
       inkscape:transform-center-x="0.16377576"
       transform="matrix(-0.84625122,-0.25052709,-0.29659708,1.0018702,258.66252,1.2408137)"
       inkscape:transform-center-y="-0.032293096" />
    <path
       sodipodi:type="star"
       style="fill:#000000;fill-opacity:1;stroke:none;stroke-width:0.5;stroke-miterlimit:4;stroke-dasharray:2, 2;stroke-dashoffset:0;stroke-opacity:1"
       id="path1002"
       sodipodi:sides="5"
       sodipodi:cx="-185.38863"
       sodipodi:cy="185.83408"
       sodipodi:r1="2.9881642"
       sodipodi:r2="1.0458574"
       sodipodi:arg1="1.1071487"
       sodipodi:arg2="1.7354672"
       inkscape:flatsided="false"
       inkscape:rounded="0"
       inkscape:randomized="0"
       d="m -184.05228,188.50677 -1.50779,-1.64098 -1.95749,1.06514 1.09474,-1.94109 -1.6179,-1.53253 2.18437,0.44132 0.95757,-2.0123 0.25528,2.21385 2.20971,0.28886 -2.0266,0.92691 z"
       inkscape:transform-center-y="-1.0277891e-06"
       transform="scale(-1,1)" />
    <path
       d="m 73.455777,167.82639 -1.076555,-1.17165 -1.397633,0.7605 0.781636,-1.38592 -1.155175,-1.09422 1.559632,0.31511 0.683696,-1.43677 0.18227,1.58067 1.577722,0.20624 -1.446983,0.66181 z"
       inkscape:randomized="0"
       inkscape:rounded="0"
       inkscape:flatsided="false"
       sodipodi:arg2="1.7354672"
       sodipodi:arg1="1.1071487"
       sodipodi:r2="0.74673605"
       sodipodi:r1="2.1335316"
       sodipodi:cy="165.91811"
       sodipodi:cx="72.501633"
       sodipodi:sides="5"
       id="path1004"
       style="fill:#000000;fill-opacity:1;stroke:none;stroke-width:0.35699704;stroke-miterlimit:4;stroke-dasharray:1.42798819, 1.42798819;stroke-dashoffset:0;stroke-opacity:1"
       sodipodi:type="star"
       transform="matrix(-0.84625122,-0.25052709,-0.29659708,1.0018702,262.13702,36.787661)" />
    <path
       sodipodi:type="star"
       style="fill:#000000;fill-opacity:1;stroke:none;stroke-width:0.5;stroke-miterlimit:4;stroke-dasharray:2, 2;stroke-dashoffset:0;stroke-opacity:1"
       id="path1006"
       sodipodi:sides="5"
       sodipodi:cx="-92.632591"
       sodipodi:cy="170.2426"
       sodipodi:r1="2.9881642"
       sodipodi:r2="1.0458574"
       sodipodi:arg1="1.1071487"
       sodipodi:arg2="1.7354672"
       inkscape:flatsided="false"
       inkscape:rounded="0"
       inkscape:randomized="0"
       d="m -91.296244,172.91529 -1.507792,-1.64098 -1.957485,1.06514 1.094736,-1.94109 -1.617905,-1.53253 2.184377,0.44133 0.957565,-2.0123 0.255282,2.21384 2.209713,0.28887 -2.026604,0.9269 z"
       inkscape:transform-center-y="-1.0277891e-06"
       transform="scale(-1,1)" />
    <path
       inkscape:transform-center-y="-1.0277891e-06"
       d="m -65.266123,184.65603 -1.507792,-1.64098 -1.957486,1.06514 1.094737,-1.94109 -1.617905,-1.53253 2.184377,0.44132 0.957564,-2.01229 0.255283,2.21384 2.209713,0.28886 -2.026604,0.92691 z"
       inkscape:randomized="0"
       inkscape:rounded="0"
       inkscape:flatsided="false"
       sodipodi:arg2="1.7354672"
       sodipodi:arg1="1.1071487"
       sodipodi:r2="1.0458574"
       sodipodi:r1="2.9881642"
       sodipodi:cy="181.98334"
       sodipodi:cx="-66.60247"
       sodipodi:sides="5"
       id="path1008"
       style="fill:#000000;fill-opacity:1;stroke:none;stroke-width:0.5;stroke-miterlimit:4;stroke-dasharray:2, 2;stroke-dashoffset:0;stroke-opacity:1"
       sodipodi:type="star"
       transform="scale(-1,1)" />
    <path
       sodipodi:type="star"
       style="fill:#000000;fill-opacity:1;stroke:none;stroke-width:0.5;stroke-miterlimit:4;stroke-dasharray:2, 2;stroke-dashoffset:0;stroke-opacity:1"
       id="path1010"
       sodipodi:sides="5"
       sodipodi:cx="-28.696451"
       sodipodi:cy="184.82338"
       sodipodi:r1="2.9881642"
       sodipodi:r2="1.0458574"
       sodipodi:arg1="1.1071487"
       sodipodi:arg2="1.7354672"
       inkscape:flatsided="false"
       inkscape:rounded="0"
       inkscape:randomized="0"
       d="m -27.360103,187.49607 -1.507793,-1.64098 -1.957485,1.06514 1.094736,-1.94109 -1.617905,-1.53253 2.184377,0.44133 0.957565,-2.0123 0.255282,2.21384 2.209713,0.28887 -2.026604,0.9269 z"
       inkscape:transform-center-y="-1.0277891e-06"
       transform="scale(-1,1)" />
    <path
       inkscape:transform-center-y="-1.0277891e-06"
       d="m -45.441801,146.35971 -1.507793,-1.64099 -1.957485,1.06514 1.094737,-1.94109 -1.617906,-1.53253 2.184378,0.44133 0.957564,-2.0123 0.255283,2.21384 2.209713,0.28887 -2.026604,0.9269 z"
       inkscape:randomized="0"
       inkscape:rounded="0"
       inkscape:flatsided="false"
       sodipodi:arg2="1.7354672"
       sodipodi:arg1="1.1071487"
       sodipodi:r2="1.0458574"
       sodipodi:r1="2.9881642"
       sodipodi:cy="143.68701"
       sodipodi:cx="-46.778149"
       sodipodi:sides="5"
       id="path1012"
       style="fill:#000000;fill-opacity:1;stroke:none;stroke-width:0.5;stroke-miterlimit:4;stroke-dasharray:2, 2;stroke-dashoffset:0;stroke-opacity:1"
       sodipodi:type="star"
       transform="scale(-1,1)" />
    <path
       sodipodi:type="star"
       style="fill:#000000;fill-opacity:1;stroke:none;stroke-width:0.5;stroke-miterlimit:4;stroke-dasharray:2, 2;stroke-dashoffset:0;stroke-opacity:1"
       id="path1014"
       sodipodi:sides="5"
       sodipodi:cx="-30.101404"
       sodipodi:cy="122.38398"
       sodipodi:r1="2.9881642"
       sodipodi:r2="1.0458574"
       sodipodi:arg1="1.1071487"
       sodipodi:arg2="1.7354672"
       inkscape:flatsided="false"
       inkscape:rounded="0"
       inkscape:randomized="0"
       d="m -28.765056,125.05668 -1.507793,-1.64099 -1.957485,1.06514 1.094736,-1.94109 -1.617905,-1.53253 2.184377,0.44133 0.957565,-2.0123 0.255282,2.21384 2.209713,0.28887 -2.026604,0.9269 z"
       inkscape:transform-center-y="-1.0277891e-06"
       transform="scale(-1,1)" />
    <path
       inkscape:transform-center-y="-1.0277891e-06"
       d="m -27.971569,93.306667 -1.507793,-1.640985 -1.957485,1.065141 1.094737,-1.941089 -1.617906,-1.532532 2.184378,0.441327 0.957564,-2.012298 0.255283,2.213844 2.209713,0.288863 -2.026604,0.926904 z"
       inkscape:randomized="0"
       inkscape:rounded="0"
       inkscape:flatsided="false"
       sodipodi:arg2="1.7354672"
       sodipodi:arg1="1.1071487"
       sodipodi:r2="1.0458574"
       sodipodi:r1="2.9881642"
       sodipodi:cy="90.633972"
       sodipodi:cx="-29.307917"
       sodipodi:sides="5"
       id="path1016"
       style="fill:#000000;fill-opacity:1;stroke:none;stroke-width:0.5;stroke-miterlimit:4;stroke-dasharray:2, 2;stroke-dashoffset:0;stroke-opacity:1"
       sodipodi:type="star"
       transform="scale(-1,1)" />
    <path
       sodipodi:type="star"
       style="fill:#000000;fill-opacity:1;stroke:none;stroke-width:0.5;stroke-miterlimit:4;stroke-dasharray:2, 2;stroke-dashoffset:0;stroke-opacity:1"
       id="path1018"
       sodipodi:sides="5"
       sodipodi:cx="-79.350334"
       sodipodi:cy="118.12271"
       sodipodi:r1="2.9881642"
       sodipodi:r2="1.0458574"
       sodipodi:arg1="1.1071487"
       sodipodi:arg2="1.7354672"
       inkscape:flatsided="false"
       inkscape:rounded="0"
       inkscape:randomized="0"
       d="m -78.013986,120.79541 -1.507793,-1.64099 -1.957485,1.06514 1.094736,-1.94109 -1.617905,-1.53253 2.184377,0.44133 0.957565,-2.0123 0.255282,2.21384 2.209713,0.28887 -2.026604,0.9269 z"
       inkscape:transform-center-y="-1.0277891e-06"
       transform="scale(-1,1)" />
    <path
       inkscape:transform-center-y="-1.0277891e-06"
       d="m -61.682218,92.956837 -1.507793,-1.640986 -1.957485,1.065141 1.094736,-1.941089 -1.617905,-1.532532 2.184377,0.441327 0.957565,-2.012298 0.255282,2.213844 2.209713,0.288864 -2.026604,0.926903 z"
       inkscape:randomized="0"
       inkscape:rounded="0"
       inkscape:flatsided="false"
       sodipodi:arg2="1.7354672"
       sodipodi:arg1="1.1071487"
       sodipodi:r2="1.0458574"
       sodipodi:r1="2.9881642"
       sodipodi:cy="90.284142"
       sodipodi:cx="-63.018566"
       sodipodi:sides="5"
       id="path1020"
       style="fill:#000000;fill-opacity:1;stroke:none;stroke-width:0.5;stroke-miterlimit:4;stroke-dasharray:2, 2;stroke-dashoffset:0;stroke-opacity:1"
       sodipodi:type="star"
       transform="scale(-1,1)" />
    <rect
       style="fill:none;fill-opacity:1;fill-rule:nonzero;stroke:#040000;stroke-width:0.7484687;stroke-miterlimit:4;stroke-dasharray:none;stroke-dashoffset:0;stroke-opacity:1"
       id="rect2513"
       width="179.25153"
       height="114.25153"
       x="-196.38408"
       y="80.127106"
       transform="scale(-1,1)" />
    <path
       inkscape:transform-center-x="0.1637754"
       transform="matrix(-0.84625122,-0.25052709,-0.29659708,1.0018702,242.35907,-1.4318815)"
       inkscape:transform-center-y="-0.032285957"
       d="m 57.939458,118.20797 -1.076555,-1.17165 -1.397633,0.7605 0.781635,-1.38592 -1.155175,-1.09422 1.559633,0.3151 0.683695,-1.43677 0.182271,1.58067 1.577722,0.20625 -1.446984,0.6618 z"
       inkscape:randomized="0"
       inkscape:rounded="0"
       inkscape:flatsided="false"
       sodipodi:arg2="1.7354672"
       sodipodi:arg1="1.1071487"
       sodipodi:r2="0.74673605"
       sodipodi:r1="2.1335316"
       sodipodi:cy="116.29968"
       sodipodi:cx="56.985313"
       sodipodi:sides="5"
       id="path2582"
       style="fill:#000000;fill-opacity:1;stroke:none;stroke-width:0.35699704;stroke-miterlimit:4;stroke-dasharray:1.42798819, 1.42798819;stroke-dashoffset:0;stroke-opacity:1"
       sodipodi:type="star" />
  </g>
</svg>
